<?xml version="1.0" encoding="UTF-8" standalone="no"?>
<!-- Created with Inkscape (http://www.inkscape.org/) -->

<svg
   xmlns:dc="http://purl.org/dc/elements/1.1/"
   xmlns:cc="http://creativecommons.org/ns#"
   xmlns:rdf="http://www.w3.org/1999/02/22-rdf-syntax-ns#"
   xmlns:svg="http://www.w3.org/2000/svg"
   xmlns="http://www.w3.org/2000/svg"
   xmlns:sodipodi="http://sodipodi.sourceforge.net/DTD/sodipodi-0.dtd"
   xmlns:inkscape="http://www.inkscape.org/namespaces/inkscape"
   width="150.70667mm"
   height="150.70667mm"
   viewBox="0 0 533.99999 533.99999"
   id="svg2"
   version="1.1"
   inkscape:version="0.91 r13725"
   sodipodi:docname="arxiv_logo.svg">
  <defs
     id="defs4" />
  <sodipodi:namedview
     id="base"
     pagecolor="#ffffff"
     bordercolor="#666666"
     borderopacity="1.0"
     inkscape:pageopacity="0.0"
     inkscape:pageshadow="2"
     inkscape:zoom="0.35"
     inkscape:cx="-216.57143"
     inkscape:cy="238.42859"
     inkscape:document-units="px"
     inkscape:current-layer="g4201"
     showgrid="false"
     fit-margin-top="0"
     fit-margin-left="0"
     fit-margin-right="0"
     fit-margin-bottom="0"
     inkscape:window-width="1551"
     inkscape:window-height="876"
     inkscape:window-x="49"
     inkscape:window-y="24"
     inkscape:window-maximized="1" />
  <metadata
     id="metadata7">
    <rdf:RDF>
      <cc:Work
         rdf:about="">
        <dc:format>image/svg+xml</dc:format>
        <dc:type
           rdf:resource="http://purl.org/dc/dcmitype/StillImage" />
        <dc:title></dc:title>
      </cc:Work>
    </rdf:RDF>
  </metadata>
  <g
     inkscape:label="Layer 1"
     inkscape:groupmode="layer"
     id="layer1"
     transform="translate(-107.28571,-236.7908)">
    <g
       id="g4201"
       transform="translate(-62.857139,-40.000001)">
      <path
         style="fill:#fafafa"
         d="m 170.14285,543.7908 0,-267 267,0 267,0 0,267 0,267 -267,0 -267,0 0,-267 z"
         id="path4217"
         inkscape:connector-curvature="0" />
      <path
         style="fill:#fcf551"
         d="m 224.14285,809.79932 c -1.375,-0.45847 -3.63412,-1.08057 -5.02027,-1.38244 -7.72577,-1.68252 -19.17739,-13.68367 -22.44528,-23.52236 -1.45977,-4.39497 -2.29654,-5.28578 -8.21767,-8.74847 -9.70214,-5.67383 -15.0073,-12.81759 -17.19517,-23.15447 -3.15562,-14.90921 1.06855,-29.27505 11.09723,-37.74015 4.00267,-3.3786 14.48106,-8.45876 17.44937,-8.45984 1.19252,-4.3e-4 2.88002,-0.27393 3.75,-0.60778 1.43334,-0.55002 1.58179,-15.74977 1.58179,-161.96145 l 0,-161.35447 -4.25,-1.06967 c -10.92772,-2.75037 -21.98587,-10.76367 -26.26344,-19.03183 -6.25876,-12.09763 -5.86497,-29.82868 0.91957,-41.40563 4.23565,-7.22758 14.66716,-14.97842 22.7879,-16.93191 1.9984,-0.48072 3.52884,-2.21433 5.92713,-6.71398 3.67874,-6.90204 9.72583,-12.67229 17.16547,-16.37961 4.50867,-2.24677 6.35136,-2.54446 15.74999,-2.54446 9.86563,0 11.09044,0.22312 16.75026,3.05137 7.76353,3.87948 15.35212,12.03147 18.14252,19.48948 1.13883,3.0438 2.0706,6.22188 2.0706,7.0624 0,0.84053 0.46583,2.39865 1.03518,3.46249 1.01683,1.89996 3.86955,1.93426 160.87756,1.93426 126.67813,0 160.0482,-0.25935 160.83443,-1.25 0.54562,-0.6875 1.31368,-3.05 1.70679,-5.25 1.8119,-10.14009 10.80243,-21.30044 21.04604,-26.12537 4.25985,-2.00647 6.55432,-2.35509 15.5,-2.35509 9.03067,0 11.2329,0.34122 15.73743,2.4384 7.00991,3.26362 14.28332,10.25299 17.7028,17.01147 1.53902,3.04183 3.30707,5.53094 3.929,5.53138 0.62192,4.3e-4 3.94094,1.33022 7.3756,2.95509 8.36917,3.95928 15.27878,10.61849 19.12559,18.43247 2.94088,5.97378 3.12958,7.03174 3.12958,17.54629 0,9.91236 -0.29045,11.80318 -2.54528,16.5695 -3.8553,8.14943 -10.45217,14.85596 -18.64447,18.9544 -3.89343,1.9478 -8.0535,3.54146 -9.24461,3.54146 -1.1911,0 -2.70564,0.54 -3.36564,1.2 -0.92335,0.92335 -1.2,38.14774 -1.2,161.46482 0,157.42567 0.0343,160.28315 1.93426,161.3 1.06384,0.56935 2.62196,1.03518 3.46249,1.03518 0.84052,0 4.0186,0.93177 7.0624,2.0706 7.45801,2.7904 15.61,10.37899 19.48948,18.14252 2.81492,5.63314 3.05137,6.91239 3.05137,16.50853 0,9.03416 -0.3305,11.10082 -2.51301,15.71426 -3.5542,7.51297 -9.36178,13.68571 -16.41106,17.44293 -4.49965,2.39829 -6.23326,3.92873 -6.71398,5.92713 -1.95349,8.12074 -9.70433,18.55225 -16.93191,22.7879 -11.57695,6.78454 -29.308,7.17833 -41.40563,0.91957 -8.26816,-4.27757 -16.28146,-15.33572 -19.03183,-26.26344 l -1.06967,-4.25 -161.7975,0 -161.79751,0 -1.73007,6.25 c -3.75924,13.58052 -14.21847,24.40487 -26.39392,27.31529 -6.29244,1.50415 -18.30306,1.7439 -22.20391,0.44323 z m 13.0902,-20.37964 c 8.20449,-2.93273 14.8546,-11.13472 16.32036,-20.12888 0.35853,-2.2 2.24733,-7.20901 4.19733,-11.13113 2.91563,-5.86432 3.57626,-8.35137 3.71879,-14 0.0953,-3.77788 -0.2209,-8.138 -0.70273,-9.68916 -0.83733,-2.69563 0.0656,-3.76571 20.4278,-24.20836 l 21.30384,-21.38806 -8.39801,-8.79165 c -4.6189,-4.8354 -8.78317,-8.95306 -9.25393,-9.15035 -0.47075,-0.19729 -11.98822,10.71521 -25.59437,24.25 -19.27603,19.17494 -25.29852,24.60871 -27.27492,24.60871 -1.39507,0 -4.62025,1.10795 -7.16708,2.46211 -4.39637,2.33757 -4.84021,2.38816 -8.77466,1 -16.04268,-5.66018 -32.09262,5.11119 -32.09262,21.53789 0,6.75691 2.11613,11.84947 6.92007,16.6534 4.12319,4.12319 5.09659,4.17099 6.44037,0.31622 1.48278,-4.25351 6.09229,-6.52179 9.98047,-4.91125 4.27657,1.77141 4.94988,3.83462 4.28929,13.14368 -0.52544,7.4046 -0.33806,8.78242 1.74048,12.79795 1.49963,2.89712 3.576,5.12279 5.82932,6.24845 4.13119,2.06376 12.86705,2.24747 18.0902,0.38043 z m 415.83872,-0.38043 c 6.24336,-3.18357 7.56549,-6.14912 7.61401,-17.0783 0.0512,-11.52258 0.64024,-13.58917 4.30645,-15.10776 3.84073,-1.59088 7.63435,0.0251 9.7299,4.14465 0.92129,1.81113 1.81693,3.45455 1.99032,3.65205 0.87259,0.99394 6.75166,-4.55114 9.13242,-8.61361 2.21777,-3.78433 2.70974,-5.84218 2.70974,-11.33443 0,-5.70241 -0.44805,-7.43533 -2.98231,-11.53439 -4.16564,-6.73777 -10.79311,-10.67768 -18.8212,-11.18887 -4.12322,-0.26255 -7.41813,0.12376 -9.89988,1.1607 -3.54205,1.47997 -3.97032,1.43757 -8.96407,-0.88737 -2.88436,-1.34287 -6.34862,-2.44598 -7.69835,-2.45135 -1.8646,-0.007 -8.41799,-5.95458 -27.28371,-24.75977 l -24.82967,-24.75 -9.15771,9.29989 -9.15771,9.29989 21.36693,21.38429 21.36693,21.38428 -1.29464,5.39668 c -1.64967,6.8766 -0.39683,13.24815 4.44454,22.60345 1.9245,3.71883 3.50897,8.08226 3.52105,9.69651 0.0532,7.10757 8.58641,17.74083 16.1931,20.17824 5.29979,1.69821 13.88332,1.45846 17.71386,-0.49478 z m -350.45394,-388.17753 7.97499,-8.06779 -24.72499,-24.79752 c -18.78744,-18.84255 -24.72733,-25.38684 -24.73475,-27.25156 -0.005,-1.34973 -1.10848,-4.81399 -2.45135,-7.69835 -2.32494,-4.99375 -2.36734,-5.42202 -0.88737,-8.96407 2.433,-5.82298 1.46432,-14.95239 -2.2186,-20.90937 -4.449,-7.19608 -10.78505,-10.75695 -19.26527,-10.8271 -5.53586,-0.0458 -7.46282,0.41229 -11.35229,2.6987 -4.11219,2.41734 -9.67294,8.29995 -8.67444,9.17654 0.1975,0.17338 1.84092,1.06903 3.65205,1.99032 5.73206,2.9158 6.46751,8.65604 1.59961,12.48513 -2.17165,1.70821 -3.59937,1.89381 -11.1909,1.45475 -9.73499,-0.56303 -13.85129,0.80899 -17.54487,5.84793 -2.52051,3.43858 -3.32222,12.34319 -1.64926,18.31841 2.37862,8.49559 12.72817,17.39189 20.30181,17.4511 1.54514,0.0121 6.57419,1.87026 11.17566,4.12929 8.76588,4.30349 15.32376,5.28546 23.51499,3.52113 3.49907,-0.75367 3.50557,-0.74828 24.42998,20.2477 16.28185,16.33753 21.27865,20.80846 22.5,20.13205 0.86351,-0.47822 5.15876,-4.50001 9.545,-8.93729 z m 325.79005,-31.12729 c 6.84821,1.64286 13.05464,0.43131 22.71698,-4.43457 3.83243,-1.92998 8.2168,-3.51894 9.74303,-3.53102 4.01022,-0.0317 10.30037,-3.15729 14.19804,-7.05496 4.87637,-4.87638 7.02911,-10.29927 7.05496,-17.77195 0.0457,-13.20657 -5.68887,-17.89203 -20.60942,-16.83907 -7.27114,0.51313 -8.53505,0.34487 -10.80165,-1.43804 -4.49445,-3.53534 -3.18884,-10.54536 2.39481,-12.85819 3.70466,-1.53452 3.7388,-2.02979 0.41243,-5.98296 -8.22201,-9.7713 -23.92428,-10.24751 -33.16595,-1.00584 -6.67615,6.67615 -8.78171,15.99886 -5.67359,25.1207 1.47908,4.34087 1.44321,4.70048 -0.99023,9.92814 -1.3887,2.98327 -2.5293,6.31247 -2.53467,7.39821 -0.006,1.23609 -9.26228,11.25866 -24.75977,26.80987 l -24.75,24.83579 9.5,8.8717 9.5,8.87169 21.18417,-21.10707 21.18418,-21.10707 5.39668,1.29464 z"
         id="path4215"
         inkscape:connector-curvature="0" />
      <path
         style="fill:#a1ef43"
         d="m 224.14285,809.79932 c -1.375,-0.45847 -3.63412,-1.08057 -5.02027,-1.38244 -7.72577,-1.68252 -19.17739,-13.68367 -22.44528,-23.52236 -1.45977,-4.39497 -2.29654,-5.28578 -8.21767,-8.74847 -9.70214,-5.67383 -15.0073,-12.81759 -17.19517,-23.15447 -3.15562,-14.90921 1.06855,-29.27505 11.09723,-37.74015 4.00267,-3.3786 14.48106,-8.45876 17.44937,-8.45984 1.19252,-4.3e-4 2.88002,-0.27393 3.75,-0.60778 1.43334,-0.55002 1.58179,-15.74977 1.58179,-161.96145 l 0,-161.35447 -4.25,-1.06967 c -10.92772,-2.75037 -21.98587,-10.76367 -26.26344,-19.03183 -6.25876,-12.09763 -5.86497,-29.82868 0.91957,-41.40563 4.23565,-7.22758 14.66716,-14.97842 22.7879,-16.93191 1.9984,-0.48072 3.52884,-2.21433 5.92713,-6.71398 3.67874,-6.90204 9.72583,-12.67229 17.16547,-16.37961 4.50867,-2.24677 6.35136,-2.54446 15.74999,-2.54446 9.86563,0 11.09044,0.22312 16.75026,3.05137 7.76353,3.87948 15.35212,12.03147 18.14252,19.48948 1.13883,3.0438 2.0706,6.22188 2.0706,7.0624 0,0.84053 0.46583,2.39865 1.03518,3.46249 1.01683,1.89996 3.86955,1.93426 160.87756,1.93426 126.67813,0 160.0482,-0.25935 160.83443,-1.25 0.54562,-0.6875 1.31368,-3.05 1.70679,-5.25 1.8119,-10.14009 10.80243,-21.30044 21.04604,-26.12537 4.25985,-2.00647 6.55432,-2.35509 15.5,-2.35509 9.03067,0 11.2329,0.34122 15.73743,2.4384 7.00991,3.26362 14.28332,10.25299 17.7028,17.01147 1.53902,3.04183 3.30707,5.53094 3.929,5.53138 0.62192,4.3e-4 3.94094,1.33022 7.3756,2.95509 8.36917,3.95928 15.27878,10.61849 19.12559,18.43247 2.94088,5.97378 3.12958,7.03174 3.12958,17.54629 0,9.91236 -0.29045,11.80318 -2.54528,16.5695 -3.8553,8.14943 -10.45217,14.85596 -18.64447,18.9544 -3.89343,1.9478 -8.0535,3.54146 -9.24461,3.54146 -1.1911,0 -2.70564,0.54 -3.36564,1.2 -0.92335,0.92335 -1.2,38.14774 -1.2,161.46482 0,157.42567 0.0343,160.28315 1.93426,161.3 1.06384,0.56935 2.62196,1.03518 3.46249,1.03518 0.84052,0 4.0186,0.93177 7.0624,2.0706 7.45801,2.7904 15.61,10.37899 19.48948,18.14252 2.81492,5.63314 3.05137,6.91239 3.05137,16.50853 0,9.03416 -0.3305,11.10082 -2.51301,15.71426 -3.5542,7.51297 -9.36178,13.68571 -16.41106,17.44293 -4.49965,2.39829 -6.23326,3.92873 -6.71398,5.92713 -1.95349,8.12074 -9.70433,18.55225 -16.93191,22.7879 -11.57695,6.78454 -29.308,7.17833 -41.40563,0.91957 -8.26816,-4.27757 -16.28146,-15.33572 -19.03183,-26.26344 l -1.06967,-4.25 -161.7975,0 -161.79751,0 -1.73007,6.25 c -3.75924,13.58052 -14.21847,24.40487 -26.39392,27.31529 -6.29244,1.50415 -18.30306,1.7439 -22.20391,0.44323 z m 13.0902,-20.37964 c 8.20449,-2.93273 14.8546,-11.13472 16.32036,-20.12888 0.35853,-2.2 2.24733,-7.20901 4.19733,-11.13113 2.91563,-5.86432 3.57626,-8.35137 3.71879,-14 0.0953,-3.77788 -0.2209,-8.138 -0.70273,-9.68916 -0.83733,-2.69563 0.0656,-3.76571 20.4278,-24.20836 l 21.30384,-21.38806 -8.39801,-8.79165 c -4.6189,-4.8354 -8.78317,-8.95306 -9.25393,-9.15035 -0.47075,-0.19729 -11.98822,10.71521 -25.59437,24.25 -19.27603,19.17494 -25.29852,24.60871 -27.27492,24.60871 -1.39507,0 -4.62025,1.10795 -7.16708,2.46211 -4.39637,2.33757 -4.84021,2.38816 -8.77466,1 -16.04268,-5.66018 -32.09262,5.11119 -32.09262,21.53789 0,6.75691 2.11613,11.84947 6.92007,16.6534 4.12319,4.12319 5.09659,4.17099 6.44037,0.31622 1.48278,-4.25351 6.09229,-6.52179 9.98047,-4.91125 4.27657,1.77141 4.94988,3.83462 4.28929,13.14368 -0.52544,7.4046 -0.33806,8.78242 1.74048,12.79795 1.49963,2.89712 3.576,5.12279 5.82932,6.24845 4.13119,2.06376 12.86705,2.24747 18.0902,0.38043 z m 415.83872,-0.38043 c 6.24336,-3.18357 7.56549,-6.14912 7.61401,-17.0783 0.0512,-11.52258 0.64024,-13.58917 4.30645,-15.10776 3.84073,-1.59088 7.63435,0.0251 9.7299,4.14465 0.92129,1.81113 1.81693,3.45455 1.99032,3.65205 0.87259,0.99394 6.75166,-4.55114 9.13242,-8.61361 2.21777,-3.78433 2.70974,-5.84218 2.70974,-11.33443 0,-5.70241 -0.44805,-7.43533 -2.98231,-11.53439 -4.16564,-6.73777 -10.79311,-10.67768 -18.8212,-11.18887 -4.12322,-0.26255 -7.41813,0.12376 -9.89988,1.1607 -3.54205,1.47997 -3.97032,1.43757 -8.96407,-0.88737 -2.88436,-1.34287 -6.34862,-2.44598 -7.69835,-2.45135 -1.8646,-0.007 -8.41799,-5.95458 -27.28371,-24.75977 l -24.82967,-24.75 -9.15771,9.29989 -9.15771,9.29989 21.36693,21.38429 21.36693,21.38428 -1.29464,5.39668 c -1.64967,6.8766 -0.39683,13.24815 4.44454,22.60345 1.9245,3.71883 3.50897,8.08226 3.52105,9.69651 0.0532,7.10757 8.58641,17.74083 16.1931,20.17824 5.29979,1.69821 13.88332,1.45846 17.71386,-0.49478 z M 442.9563,698.77228 c 65.35785,-5.78518 121.52656,-49.86149 142.06657,-111.48148 6.33954,-19.01857 7.58888,-27.71392 7.54317,-52.5 -0.0455,-24.69672 -1.14089,-32.2579 -7.43743,-51.34043 -14.40331,-43.65117 -49.99825,-82.26029 -89.57037,-97.1552 -34.55166,-13.0052 -76.42383,-13.91092 -111.71486,-2.41644 -50.65256,16.49782 -91.35802,57.13167 -108.10221,107.91207 -11.41801,34.6276 -11.30489,73.15498 0.30028,102.27098 23.57516,59.14731 75.74312,98.59773 138.40284,104.66291 11.933,1.15506 15.92511,1.16172 28.51201,0.0476 z m -25.96301,-44.50409 c -27.30291,-3.72503 -50.81881,-14.58426 -73.08798,-33.75074 l -6.85101,-5.89649 -3.20572,2.42903 c -7.29956,5.53099 -6.91465,5.62205 -14.15811,-3.34945 -3.60119,-4.46031 -6.51449,-8.85217 -6.47399,-9.7597 0.0405,-0.90752 2.40299,-3.62832 5.25,-6.04621 7.42475,-6.30566 14.16552,-14.44292 19.34591,-23.35383 2.47803,-4.2625 5.03855,-7.75 5.69006,-7.75 1.57005,0 17.6404,16.19191 17.6404,17.77384 0,0.67763 -1.35334,3.36823 -3.00741,5.97911 l -3.00742,4.74705 6.60332,6.33221 c 26.60753,25.51513 69.01348,35.33238 106.14278,24.57273 17.15001,-4.96988 34.22287,-14.6966 45.02753,-25.65299 l 5.25879,-5.33265 -3.00879,-4.74438 c -1.65484,-2.60941 -3.0088,-5.30118 -3.0088,-5.98173 0,-2.2353 16.68658,-18.02744 18.36709,-17.38256 0.8484,0.32556 2.52622,2.52635 3.72848,4.89065 4.15628,8.17347 9.67983,15.32968 17.86123,23.14071 6.60644,6.30735 8.10146,8.26429 7.63958,10 -0.31585,1.1869 -3.29335,5.42477 -6.61668,9.41748 -6.0346,7.25008 -6.04592,7.2575 -8.76105,5.74337 -1.49526,-0.83385 -3.91205,-2.46806 -5.37066,-3.63156 l -2.65201,-2.11546 -7.74174,6.75181 c -30.50693,26.60604 -70.86352,38.5281 -111.6038,32.96976 z M 377.23956,531.7648 c -6.54075,-4.09563 -10.194,-10.12452 -13.15832,-21.71489 -4.72059,-18.45733 -0.90027,-41.65426 8.5901,-52.15896 6.30604,-6.98003 13.55229,-7.29029 20.24596,-0.86685 7.42158,7.12196 11.19599,19.17968 11.19599,35.7667 0,12.42383 -1.83048,21.08126 -6.1845,29.25024 -5.49934,10.31782 -13.63447,14.14125 -20.68923,9.72376 z m 106,0 c -6.54075,-4.09563 -10.194,-10.12452 -13.15832,-21.71489 -4.72059,-18.45733 -0.90027,-41.65426 8.5901,-52.15896 6.30604,-6.98003 13.55229,-7.29029 20.24596,-0.86685 7.42158,7.12196 11.19599,19.17968 11.19599,35.7667 0,12.42383 -1.83048,21.08126 -6.1845,29.25024 -5.49934,10.31782 -13.63447,14.14125 -20.68923,9.72376 z m -180.62173,-130.90308 7.97499,-8.06779 -24.72499,-24.79752 c -18.78744,-18.84255 -24.72733,-25.38684 -24.73475,-27.25156 -0.005,-1.34973 -1.10848,-4.81399 -2.45135,-7.69835 -2.32494,-4.99375 -2.36734,-5.42202 -0.88737,-8.96407 2.433,-5.82298 1.46432,-14.95239 -2.2186,-20.90937 -4.449,-7.19608 -10.78505,-10.75695 -19.26527,-10.8271 -5.53586,-0.0458 -7.46282,0.41229 -11.35229,2.6987 -4.11219,2.41734 -9.67294,8.29995 -8.67444,9.17654 0.1975,0.17338 1.84092,1.06903 3.65205,1.99032 5.73206,2.9158 6.46751,8.65604 1.59961,12.48513 -2.17165,1.70821 -3.59937,1.89381 -11.1909,1.45475 -9.73499,-0.56303 -13.85129,0.80899 -17.54487,5.84793 -2.52051,3.43858 -3.32222,12.34319 -1.64926,18.31841 2.37862,8.49559 12.72817,17.39189 20.30181,17.4511 1.54514,0.0121 6.57419,1.87026 11.17566,4.12929 8.76588,4.30349 15.32376,5.28546 23.51499,3.52113 3.49907,-0.75367 3.50557,-0.74828 24.42998,20.2477 16.28185,16.33753 21.27865,20.80846 22.5,20.13205 0.86351,-0.47822 5.15876,-4.50001 9.545,-8.93729 z m 325.79005,-31.12729 c 6.84821,1.64286 13.05464,0.43131 22.71698,-4.43457 3.83243,-1.92998 8.2168,-3.51894 9.74303,-3.53102 4.01022,-0.0317 10.30037,-3.15729 14.19804,-7.05496 4.87637,-4.87638 7.02911,-10.29927 7.05496,-17.77195 0.0457,-13.20657 -5.68887,-17.89203 -20.60942,-16.83907 -7.27114,0.51313 -8.53505,0.34487 -10.80165,-1.43804 -4.49445,-3.53534 -3.18884,-10.54536 2.39481,-12.85819 3.70466,-1.53452 3.7388,-2.02979 0.41243,-5.98296 -8.22201,-9.7713 -23.92428,-10.24751 -33.16595,-1.00584 -6.67615,6.67615 -8.78171,15.99886 -5.67359,25.1207 1.47908,4.34087 1.44321,4.70048 -0.99023,9.92814 -1.3887,2.98327 -2.5293,6.31247 -2.53467,7.39821 -0.006,1.23609 -9.26228,11.25866 -24.75977,26.80987 l -24.75,24.83579 9.5,8.8717 9.5,8.87169 21.18417,-21.10707 21.18418,-21.10707 5.39668,1.29464 z"
         id="path4213"
         inkscape:connector-curvature="0" />
      <path
         style="fill:#949494"
         d="m 224.14285,809.79932 c -1.375,-0.45847 -3.63412,-1.08057 -5.02027,-1.38244 -7.72577,-1.68252 -19.17739,-13.68367 -22.44528,-23.52236 -1.45977,-4.39497 -2.29654,-5.28578 -8.21767,-8.74847 -9.70214,-5.67383 -15.0073,-12.81759 -17.19517,-23.15447 -3.15562,-14.90921 1.06855,-29.27505 11.09723,-37.74015 4.00267,-3.3786 14.48106,-8.45876 17.44937,-8.45984 1.19252,-4.3e-4 2.88002,-0.27393 3.75,-0.60778 1.43334,-0.55002 1.58179,-15.74977 1.58179,-161.96145 l 0,-161.35447 -4.25,-1.06967 c -10.92772,-2.75037 -21.98587,-10.76367 -26.26344,-19.03183 -6.25876,-12.09763 -5.86497,-29.82868 0.91957,-41.40563 4.23565,-7.22758 14.66716,-14.97842 22.7879,-16.93191 1.9984,-0.48072 3.52884,-2.21433 5.92713,-6.71398 3.67874,-6.90204 9.72583,-12.67229 17.16547,-16.37961 4.50867,-2.24677 6.35136,-2.54446 15.74999,-2.54446 9.86563,0 11.09044,0.22312 16.75026,3.05137 7.76353,3.87948 15.35212,12.03147 18.14252,19.48948 1.13883,3.0438 2.0706,6.22188 2.0706,7.0624 0,0.84053 0.46583,2.39865 1.03518,3.46249 1.01683,1.89996 3.86955,1.93426 160.87756,1.93426 126.67813,0 160.0482,-0.25935 160.83443,-1.25 0.54562,-0.6875 1.31368,-3.05 1.70679,-5.25 1.8119,-10.14009 10.80243,-21.30044 21.04604,-26.12537 4.25985,-2.00647 6.55432,-2.35509 15.5,-2.35509 9.03067,0 11.2329,0.34122 15.73743,2.4384 7.00991,3.26362 14.28332,10.25299 17.7028,17.01147 1.53902,3.04183 3.30707,5.53094 3.929,5.53138 0.62192,4.3e-4 3.94094,1.33022 7.3756,2.95509 8.36917,3.95928 15.27878,10.61849 19.12559,18.43247 2.94088,5.97378 3.12958,7.03174 3.12958,17.54629 0,9.91236 -0.29045,11.80318 -2.54528,16.5695 -3.8553,8.14943 -10.45217,14.85596 -18.64447,18.9544 -3.89343,1.9478 -8.0535,3.54146 -9.24461,3.54146 -1.1911,0 -2.70564,0.54 -3.36564,1.2 -0.92335,0.92335 -1.2,38.14774 -1.2,161.46482 0,157.42567 0.0343,160.28315 1.93426,161.3 1.06384,0.56935 2.62196,1.03518 3.46249,1.03518 0.84052,0 4.0186,0.93177 7.0624,2.0706 7.45801,2.7904 15.61,10.37899 19.48948,18.14252 2.81492,5.63314 3.05137,6.91239 3.05137,16.50853 0,9.03416 -0.3305,11.10082 -2.51301,15.71426 -3.5542,7.51297 -9.36178,13.68571 -16.41106,17.44293 -4.49965,2.39829 -6.23326,3.92873 -6.71398,5.92713 -1.95349,8.12074 -9.70433,18.55225 -16.93191,22.7879 -11.57695,6.78454 -29.308,7.17833 -41.40563,0.91957 -8.26816,-4.27757 -16.28146,-15.33572 -19.03183,-26.26344 l -1.06967,-4.25 -161.7975,0 -161.79751,0 -1.73007,6.25 c -3.75924,13.58052 -14.21847,24.40487 -26.39392,27.31529 -6.29244,1.50415 -18.30306,1.7439 -22.20391,0.44323 z m 13.0902,-20.37964 c 8.20449,-2.93273 14.8546,-11.13472 16.32036,-20.12888 0.35853,-2.2 2.24733,-7.20901 4.19733,-11.13113 2.91563,-5.86432 3.57626,-8.35137 3.71879,-14 0.0953,-3.77788 -0.2209,-8.138 -0.70273,-9.68916 -0.83733,-2.69563 0.0656,-3.76571 20.4278,-24.20836 l 21.30384,-21.38806 -8.39801,-8.79165 c -4.6189,-4.8354 -8.78317,-8.95306 -9.25393,-9.15035 -0.47075,-0.19729 -11.98822,10.71521 -25.59437,24.25 -19.27603,19.17494 -25.29852,24.60871 -27.27492,24.60871 -1.39507,0 -4.62025,1.10795 -7.16708,2.46211 -4.39637,2.33757 -4.84021,2.38816 -8.77466,1 -16.04268,-5.66018 -32.09262,5.11119 -32.09262,21.53789 0,6.75691 2.11613,11.84947 6.92007,16.6534 4.12319,4.12319 5.09659,4.17099 6.44037,0.31622 1.48278,-4.25351 6.09229,-6.52179 9.98047,-4.91125 4.27657,1.77141 4.94988,3.83462 4.28929,13.14368 -0.52544,7.4046 -0.33806,8.78242 1.74048,12.79795 1.49963,2.89712 3.576,5.12279 5.82932,6.24845 4.13119,2.06376 12.86705,2.24747 18.0902,0.38043 z m 415.83872,-0.38043 c 6.24336,-3.18357 7.56549,-6.14912 7.61401,-17.0783 0.0512,-11.52258 0.64024,-13.58917 4.30645,-15.10776 3.84073,-1.59088 7.63435,0.0251 9.7299,4.14465 0.92129,1.81113 1.81693,3.45455 1.99032,3.65205 0.87259,0.99394 6.75166,-4.55114 9.13242,-8.61361 2.21777,-3.78433 2.70974,-5.84218 2.70974,-11.33443 0,-5.70241 -0.44805,-7.43533 -2.98231,-11.53439 -4.16564,-6.73777 -10.79311,-10.67768 -18.8212,-11.18887 -4.12322,-0.26255 -7.41813,0.12376 -9.89988,1.1607 -3.54205,1.47997 -3.97032,1.43757 -8.96407,-0.88737 -2.88436,-1.34287 -6.34862,-2.44598 -7.69835,-2.45135 -1.8646,-0.007 -8.41799,-5.95458 -27.28371,-24.75977 l -24.82967,-24.75 -9.15771,9.29989 -9.15771,9.29989 21.36693,21.38429 21.36693,21.38428 -1.29464,5.39668 c -1.64967,6.8766 -0.39683,13.24815 4.44454,22.60345 1.9245,3.71883 3.50897,8.08226 3.52105,9.69651 0.0532,7.10757 8.58641,17.74083 16.1931,20.17824 5.29979,1.69821 13.88332,1.45846 17.71386,-0.49478 z M 571.14285,731.2908 c -12.91622,-12.925 -23.73769,-23.5 -24.04771,-23.5 -0.31002,0 -5.48861,2.93 -11.50798,6.51111 -33.18309,19.74165 -74.67483,29.52603 -112.5792,26.54788 -32.35664,-2.54227 -60.3898,-11.24027 -86.70814,-26.90342 -5.68867,-3.38556 -10.63508,-6.15557 -10.99202,-6.15557 -0.91876,0 -46.16495,45.32155 -46.16495,46.24185 0,0.41698 70.98391,0.75815 157.74202,0.75815 l 157.74202,0 -23.48404,-23.5 z M 250.38487,679.04895 c 12.51689,-12.50801 22.75798,-23.04115 22.75798,-23.40696 0,-0.36582 -2.77001,-5.31949 -6.15557,-11.00816 -36.32772,-61.04043 -36.44492,-138.66385 -0.30099,-199.34303 3.27611,-5.5 6.1244,-10.39103 6.32954,-10.86895 0.39383,-0.9175 -44.81366,-46.63105 -46.11483,-46.63105 -0.41698,0 -0.75815,70.65 -0.75815,157 0,86.35 0.33391,157 0.74202,157 0.40811,0 10.98311,-10.23383 23.5,-22.74185 z M 647.14285,544.84982 c 0,-86.31754 -0.37186,-157.17081 -0.82635,-157.4517 -0.4545,-0.28089 -11.32152,10.01925 -24.14894,22.8892 -22.69158,22.76682 -23.28294,23.46219 -21.85706,25.7017 5.23123,8.21627 9.49957,15.94975 13.78,24.96696 28.16971,59.34271 24.49734,129.25462 -9.76162,185.83482 l -5.1467,8.5 23.22236,23.25 c 12.77229,12.7875 23.56344,23.25 23.98033,23.25 0.41689,0 0.75798,-70.62344 0.75798,-156.94098 z M 452.6324,698.27339 c 70.48503,-10.62343 124.65895,-62.46569 138.69674,-132.72719 3.24173,-16.22543 3.23232,-44.33054 -0.0203,-60.61692 -7.00236,-35.06185 -22.7854,-64.14807 -47.84451,-88.17156 -20.69114,-19.83604 -41.51983,-30.88949 -70.33754,-37.327 -66.79063,-14.92017 -135.28419,11.56264 -175.50927,67.86008 -12.8257,17.95035 -23.8703,44.27575 -28.10927,67 -2.33411,12.51267 -2.64902,48.43076 -0.50851,58 14.63621,65.43172 68.6804,115.46383 136.07157,125.97 11.79692,1.83912 35.40087,1.84537 47.56109,0.0126 z m -28.85659,-43.57571 c -11.33511,-0.93426 -27.75405,-4.79864 -38.63296,-9.0927 -15.32626,-6.04949 -33.94648,-17.85369 -42.94617,-27.22551 -1.89539,-1.97377 -4.08063,-3.58867 -4.85609,-3.58867 -0.77546,0 -3.11445,1.35 -5.19774,3 -2.08329,1.65 -4.39805,2.99904 -5.1439,2.99787 -1.37383,-0.002 -13.8561,-15.06224 -13.8561,-16.71764 0,-0.49433 2.51493,-3.07001 5.58872,-5.72373 7.63664,-6.593 15.57216,-16.43109 19.90623,-24.67884 1.98776,-3.78271 4.18475,-6.87766 4.8822,-6.87766 1.39983,0 17.62541,16.23409 17.61857,17.62781 -0.002,0.47971 -1.35043,2.89719 -2.99572,5.37219 -1.64529,2.475 -2.99336,5.02651 -2.99572,5.67001 -0.007,1.84471 10.65465,10.94588 20.33802,17.36167 10.25667,6.79564 20.12935,11.13027 33.58393,14.74513 8.5027,2.28443 11.53159,2.57847 27.07377,2.62828 14.85565,0.0476 18.81574,-0.27661 26.2074,-2.14563 12.95446,-3.27561 23.55421,-7.67358 33.41458,-13.86411 8.87928,-5.57458 21.13575,-15.60044 22.08025,-18.06175 0.28033,-0.73054 -0.88799,-3.50635 -2.59627,-6.16847 -1.70828,-2.66212 -3.10596,-5.19331 -3.10596,-5.62486 0,-1.35985 16.29137,-17.54027 17.66054,-17.54027 0.71817,0 2.48761,2.3625 3.93208,5.25 3.97738,7.95079 12.49437,18.81429 19.83334,25.29759 3.61572,3.19416 6.57404,6.2005 6.57404,6.68076 0,1.7221 -12.35419,16.77165 -13.76787,16.77165 -0.79438,0 -3.14884,-1.35 -5.23213,-3 -2.08329,-1.65 -4.33791,-3 -5.01025,-3 -0.67234,0 -3.87484,2.45566 -7.11668,5.45703 -21.36863,19.78358 -49.97216,31.91622 -81.37782,34.51769 -6.59739,0.5465 -12.44525,0.93778 -12.99525,0.86952 -0.55,-0.0683 -5.44017,-0.49007 -10.86704,-0.93736 z M 378.45455,531.82145 c -11.10748,-4.97949 -18.30649,-26.84266 -15.57088,-47.28835 4.89314,-36.57093 28.39729,-43.42529 38.55074,-11.2423 3.28857,10.42365 3.18421,30.0207 -0.21514,40.39984 -3.46127,10.56817 -9.628,18.0313 -16.07642,19.45605 -1.42739,0.31538 -4.29696,-0.25321 -6.6883,-1.32524 z m 106,0 c -16.84862,-7.55324 -21.81963,-49.82368 -8.26568,-70.28641 10.18102,-15.37053 24.37189,-10.03139 31.24554,11.75576 3.28857,10.42365 3.18421,30.0207 -0.21514,40.39984 -3.46127,10.56817 -9.628,18.0313 -16.07642,19.45605 -1.42739,0.31538 -4.29696,-0.25321 -6.6883,-1.32524 z m -181.83672,-130.95973 7.97499,-8.06779 -24.72499,-24.79752 c -18.78744,-18.84255 -24.72733,-25.38684 -24.73475,-27.25156 -0.005,-1.34973 -1.10848,-4.81399 -2.45135,-7.69835 -2.32494,-4.99375 -2.36734,-5.42202 -0.88737,-8.96407 2.433,-5.82298 1.46432,-14.95239 -2.2186,-20.90937 -4.449,-7.19608 -10.78505,-10.75695 -19.26527,-10.8271 -5.53586,-0.0458 -7.46282,0.41229 -11.35229,2.6987 -4.11219,2.41734 -9.67294,8.29995 -8.67444,9.17654 0.1975,0.17338 1.84092,1.06903 3.65205,1.99032 5.73206,2.9158 6.46751,8.65604 1.59961,12.48513 -2.17165,1.70821 -3.59937,1.89381 -11.1909,1.45475 -9.73499,-0.56303 -13.85129,0.80899 -17.54487,5.84793 -2.52051,3.43858 -3.32222,12.34319 -1.64926,18.31841 2.37862,8.49559 12.72817,17.39189 20.30181,17.4511 1.54514,0.0121 6.57419,1.87026 11.17566,4.12929 8.76588,4.30349 15.32376,5.28546 23.51499,3.52113 3.49907,-0.75367 3.50557,-0.74828 24.42998,20.2477 16.28185,16.33753 21.27865,20.80846 22.5,20.13205 0.86351,-0.47822 5.15876,-4.50001 9.545,-8.93729 z m 325.79005,-31.12729 c 6.84821,1.64286 13.05464,0.43131 22.71698,-4.43457 3.83243,-1.92998 8.2168,-3.51894 9.74303,-3.53102 4.01022,-0.0317 10.30037,-3.15729 14.19804,-7.05496 4.87637,-4.87638 7.02911,-10.29927 7.05496,-17.77195 0.0457,-13.20657 -5.68887,-17.89203 -20.60942,-16.83907 -7.27114,0.51313 -8.53505,0.34487 -10.80165,-1.43804 -4.49445,-3.53534 -3.18884,-10.54536 2.39481,-12.85819 3.70466,-1.53452 3.7388,-2.02979 0.41243,-5.98296 -8.22201,-9.7713 -23.92428,-10.24751 -33.16595,-1.00584 -6.67615,6.67615 -8.78171,15.99886 -5.67359,25.1207 1.47908,4.34087 1.44321,4.70048 -0.99023,9.92814 -1.3887,2.98327 -2.5293,6.31247 -2.53467,7.39821 -0.006,1.23609 -9.26228,11.25866 -24.75977,26.80987 l -24.75,24.83579 9.5,8.8717 9.5,8.87169 21.18417,-21.10707 21.18418,-21.10707 5.39668,1.29464 z m -287.26503,2.88012 c 18.12417,-10.30128 40.17911,-18.03696 61.98239,-21.74008 49.44407,-8.39769 97.85574,1.75736 141.81939,29.74868 2.23951,1.42588 2.93488,0.83452 25.7017,-21.85706 12.86995,-12.82742 23.17009,-23.69444 22.8892,-24.14894 -0.63387,-1.02562 -314.39268,-1.10962 -314.39268,-0.0842 0,0.40821 10.44646,11.19574 23.21435,23.97231 l 23.21434,23.23013 3.53566,-2.14486 c 1.94461,-1.17967 7.36065,-4.31888 12.03565,-6.97601 z"
         id="path4211"
         inkscape:connector-curvature="0" />
      <path
         style="fill:#908f2e"
         d="m 222.64285,808.8186 c -11.2113,-3.71975 -20.49023,-12.81046 -24.61084,-24.11163 -1.98813,-5.45264 -2.6653,-6.26858 -6.79861,-8.19179 -2.5248,-1.17478 -7.10487,-4.63417 -10.17792,-7.68754 -7.34703,-7.29996 -10.22224,-14.41162 -10.33296,-25.55787 -0.0708,-7.12879 0.28453,-8.76082 3.19444,-14.67169 4.09957,-8.3274 12.02551,-15.84031 19.76674,-18.73668 3.0438,-1.13883 6.55229,-2.0706 7.79666,-2.0706 1.24437,0 2.80249,-0.54 3.46249,-1.2 0.92344,-0.92344 1.2,-38.48466 1.2,-162.98095 l 0,-161.78095 -2.75,-0.60886 c -10.6911,-2.36706 -16.28241,-5.49597 -23.04629,-12.89673 -6.9842,-7.64183 -9.60778,-14.61394 -9.60778,-25.53251 0,-10.91857 2.62358,-17.89068 9.60778,-25.53251 5.52359,-6.04369 10.94344,-9.60506 17.57306,-11.54722 3.62052,-1.06064 4.57098,-1.91799 6.19411,-5.58734 4.86181,-10.99093 18.01611,-20.08057 30.51166,-21.08359 17.82788,-1.43105 35.54587,12.00302 38.12749,28.90889 0.36465,2.38797 1.10668,4.90427 1.64893,5.59177 1.44761,1.83534 322.0316,1.83534 323.48821,0 0.54562,-0.6875 1.31129,-3.05 1.70146,-5.25 1.17055,-6.60006 4.15281,-12.1983 9.5231,-17.8766 17.54498,-18.55122 47.13654,-13.93312 58.93706,9.19781 1.27469,2.4986 3.29243,4.71402 4.88194,5.36023 13.96746,5.67843 20.69302,11.40365 25.62746,21.81569 2.76981,5.84451 3.08181,7.46466 3.08181,16.00287 0,8.55627 -0.3077,10.14571 -3.09741,16 -5.12183,10.74828 -14.18783,18.44553 -24.90259,21.1429 -2.75,0.6923 -5.5625,1.67346 -6.25,2.18036 -0.99103,0.73069 -1.25,34.34831 -1.25,162.264 0,152.64852 0.0943,161.39106 1.75,162.24593 0.9625,0.49696 3.52907,1.22536 5.70349,1.61867 16.85769,3.04925 29.84993,20.68721 28.20599,38.2918 -1.18286,12.66698 -10.03564,25.43876 -20.99241,30.28546 -3.66935,1.62313 -4.5267,2.57359 -5.58734,6.19411 -3.04116,10.38111 -12.6757,20.89127 -22.83307,24.90821 -8.05776,3.1866 -20.45033,3.18044 -28.53124,-0.0142 -10.7965,-4.26819 -21.35524,-16.53557 -23.34028,-27.11725 -0.36111,-1.925 -1.09835,-4.0625 -1.6383,-4.75 -0.77816,-0.99081 -34.54046,-1.25 -162.8241,-1.25 -158.98535,0 -161.86065,0.0342 -162.87756,1.93426 -0.56935,1.06384 -1.03554,2.75134 -1.03597,3.75 -0.002,3.60547 -5.79636,13.95499 -10.37989,18.53852 -10.30457,10.30458 -25.86142,14.20381 -39.11932,9.80503 z m 24.25831,-14.69387 c 5.8608,-2.77436 9.45087,-6.84106 11.72207,-13.27833 1.83639,-5.20488 1.90756,-8.57645 0.30731,-14.5596 -0.97745,-3.65456 -0.95326,-5.15877 0.12486,-7.76435 0.73544,-1.77741 2.02805,-5.93165 2.87246,-9.23165 1.51066,-5.90375 1.90891,-6.37698 24.82556,-29.5 l 23.29027,-23.5 -11.81785,-12.95581 c -6.49982,-7.1257 -12.37489,-13.14149 -13.05572,-13.36843 -0.68083,-0.22695 -12.34866,10.66567 -25.92852,24.20581 -17.71986,17.66803 -25.33115,24.61843 -26.95932,24.61843 -1.24777,0 -4.51126,0.96474 -7.2522,2.14386 -4.29955,1.84961 -5.50755,1.98686 -8.80141,1 -6.25139,-1.87296 -14.00416,-1.39519 -19.5931,1.20745 -15.84767,7.37989 -18.97043,28.11996 -5.95461,39.54801 3.97714,3.49198 6.7305,3.71409 7.30364,0.5892 0.61143,-3.33359 3.26422,-5.48852 6.75653,-5.48852 5.16787,0 6.43931,2.70078 5.71192,12.13326 -0.95781,12.4207 2.34379,18.5886 12.8078,23.92694 8.57285,4.37354 14.82656,4.44595 23.64031,0.27373 z m 399.74169,1.08502 c 6.06421,-2.53299 11.64069,-7.48276 13.71615,-12.17468 1.70409,-3.85239 1.95717,-5.98492 1.52752,-12.87159 -0.61508,-9.85901 0.53442,-12.37268 5.65805,-12.37268 3.48269,0 5.89489,1.96813 7.04739,5.75 0.93501,3.06821 2.82482,2.82639 7.07501,-0.90532 5.53706,-4.8616 7.9019,-10.20208 7.9019,-17.84468 0,-14.95166 -12.05794,-25.40229 -27.15913,-23.53884 -9.39505,1.15933 -12.4096,0.90656 -19.55809,-1.63992 -6.58189,-2.34464 -7.52593,-3.15346 -30.6308,-26.24329 -13.11178,-13.10324 -24.32383,-23.6562 -24.91567,-23.45102 -0.59184,0.20519 -6.47878,6.22307 -13.0821,13.37307 l -12.00603,13 22.85703,23 c 12.57137,12.65 23.29545,23.9 23.83128,25 0.53583,1.1 1.29604,3.77907 1.68935,5.95349 0.39331,2.17441 1.55324,5.59634 2.57761,7.60428 1.7286,3.38833 1.75382,4.00277 0.35072,8.54652 -2.56819,8.31674 -0.5025,16.33914 5.98176,23.23103 6.93788,7.37403 17.59979,9.56771 27.13805,5.58363 z m -75.5,-63.91895 c -12.91622,-12.925 -23.73769,-23.5 -24.04771,-23.5 -0.31002,0 -5.48861,2.93 -11.50798,6.51111 -33.18309,19.74165 -74.67483,29.52603 -112.5792,26.54788 -32.35664,-2.54227 -60.3898,-11.24027 -86.70814,-26.90342 -5.68867,-3.38556 -10.63508,-6.15557 -10.99202,-6.15557 -0.91876,0 -46.16495,45.32155 -46.16495,46.24185 0,0.41698 70.98391,0.75815 157.74202,0.75815 l 157.74202,0 -23.48404,-23.5 z M 250.38487,679.04895 c 12.51689,-12.50801 22.75798,-23.04115 22.75798,-23.40696 0,-0.36582 -2.77001,-5.31949 -6.15557,-11.00816 -36.32772,-61.04043 -36.44492,-138.66385 -0.30099,-199.34303 3.27611,-5.5 6.1244,-10.39103 6.32954,-10.86895 0.39383,-0.9175 -44.81366,-46.63105 -46.11483,-46.63105 -0.41698,0 -0.75815,70.65 -0.75815,157 0,86.35 0.33391,157 0.74202,157 0.40811,0 10.98311,-10.23383 23.5,-22.74185 z M 647.14285,544.84982 c 0,-86.31754 -0.37186,-157.17081 -0.82635,-157.4517 -0.4545,-0.28089 -11.32152,10.01925 -24.14894,22.8892 -22.69158,22.76682 -23.28294,23.46219 -21.85706,25.7017 5.23123,8.21627 9.49957,15.94975 13.78,24.96696 28.16971,59.34271 24.49734,129.25462 -9.76162,185.83482 l -5.1467,8.5 23.22236,23.25 c 12.77229,12.7875 23.56344,23.25 23.98033,23.25 0.41689,0 0.75798,-70.62344 0.75798,-156.94098 z M 452.6324,698.27339 c 70.48503,-10.62343 124.65895,-62.46569 138.69674,-132.72719 3.24173,-16.22543 3.23232,-44.33054 -0.0203,-60.61692 -7.00236,-35.06185 -22.7854,-64.14807 -47.84451,-88.17156 -20.69114,-19.83604 -41.51983,-30.88949 -70.33754,-37.327 -66.79063,-14.92017 -135.28419,11.56264 -175.50927,67.86008 -12.8257,17.95035 -23.8703,44.27575 -28.10927,67 -2.33411,12.51267 -2.64902,48.43076 -0.50851,58 14.63621,65.43172 68.6804,115.46383 136.07157,125.97 11.79692,1.83912 35.40087,1.84537 47.56109,0.0126 z m -28.85659,-43.57571 c -11.33511,-0.93426 -27.75405,-4.79864 -38.63296,-9.0927 -15.32626,-6.04949 -33.94648,-17.85369 -42.94617,-27.22551 -1.89539,-1.97377 -4.08063,-3.58867 -4.85609,-3.58867 -0.77546,0 -3.11445,1.35 -5.19774,3 -2.08329,1.65 -4.39805,2.99904 -5.1439,2.99787 -1.37383,-0.002 -13.8561,-15.06224 -13.8561,-16.71764 0,-0.49433 2.51493,-3.07001 5.58872,-5.72373 7.63664,-6.593 15.57216,-16.43109 19.90623,-24.67884 1.98776,-3.78271 4.18475,-6.87766 4.8822,-6.87766 1.39983,0 17.62541,16.23409 17.61857,17.62781 -0.002,0.47971 -1.35043,2.89719 -2.99572,5.37219 -1.64529,2.475 -2.99336,5.02651 -2.99572,5.67001 -0.007,1.84471 10.65465,10.94588 20.33802,17.36167 10.25667,6.79564 20.12935,11.13027 33.58393,14.74513 8.5027,2.28443 11.53159,2.57847 27.07377,2.62828 14.85565,0.0476 18.81574,-0.27661 26.2074,-2.14563 12.95446,-3.27561 23.55421,-7.67358 33.41458,-13.86411 8.87928,-5.57458 21.13575,-15.60044 22.08025,-18.06175 0.28033,-0.73054 -0.88799,-3.50635 -2.59627,-6.16847 -1.70828,-2.66212 -3.10596,-5.19331 -3.10596,-5.62486 0,-1.35985 16.29137,-17.54027 17.66054,-17.54027 0.71817,0 2.48761,2.3625 3.93208,5.25 3.97738,7.95079 12.49437,18.81429 19.83334,25.29759 3.61572,3.19416 6.57404,6.2005 6.57404,6.68076 0,1.7221 -12.35419,16.77165 -13.76787,16.77165 -0.79438,0 -3.14884,-1.35 -5.23213,-3 -2.08329,-1.65 -4.33791,-3 -5.01025,-3 -0.67234,0 -3.87484,2.45566 -7.11668,5.45703 -21.36863,19.78358 -49.97216,31.91622 -81.37782,34.51769 -6.59739,0.5465 -12.44525,0.93778 -12.99525,0.86952 -0.55,-0.0683 -5.44017,-0.49007 -10.86704,-0.93736 z M 378.45455,531.82145 c -11.10748,-4.97949 -18.30649,-26.84266 -15.57088,-47.28835 4.89314,-36.57093 28.39729,-43.42529 38.55074,-11.2423 3.28857,10.42365 3.18421,30.0207 -0.21514,40.39984 -3.46127,10.56817 -9.628,18.0313 -16.07642,19.45605 -1.42739,0.31538 -4.29696,-0.25321 -6.6883,-1.32524 z m 106,0 c -16.84862,-7.55324 -21.81963,-49.82368 -8.26568,-70.28641 10.18102,-15.37053 24.37189,-10.03139 31.24554,11.75576 3.28857,10.42365 3.18421,30.0207 -0.21514,40.39984 -3.46127,10.56817 -9.628,18.0313 -16.07642,19.45605 -1.42739,0.31538 -4.29696,-0.25321 -6.6883,-1.32524 z M 302.39285,402.27519 c 4.8125,-4.46271 8.75,-8.53141 8.75,-9.04155 0,-0.51014 -10.66546,-11.59994 -23.70102,-24.64399 -22.96329,-22.97825 -23.77632,-23.92784 -26.12022,-30.50766 -2.54648,-7.14848 -2.79925,-10.16303 -1.63992,-19.55808 0.92217,-7.47312 -0.7628,-13.46648 -5.26453,-18.72574 -9.42114,-11.00649 -24.23704,-11.86905 -34.46902,-2.00673 -5.27293,5.08243 -5.99596,7.50174 -2.55529,8.55025 3.78187,1.1525 5.75,3.5647 5.75,7.04739 0,5.10504 -2.56973,6.31063 -12.06408,5.65987 -12.88266,-0.88299 -18.90198,2.45983 -24.46421,13.58617 -4.73686,9.47533 -3.2081,20.65202 3.82897,27.99331 6.6195,6.90566 15.55249,9.42009 24.09503,6.78218 4.54375,-1.4031 5.15819,-1.37788 8.54652,0.35072 2.00794,1.02437 5.42986,2.18521 7.60428,2.57963 2.17442,0.39443 5.07849,1.30199 6.45349,2.01682 1.375,0.71483 12.59892,11.43234 24.94204,23.81669 l 22.44205,22.51701 4.55795,-4.15113 c 2.50688,-2.28313 8.49546,-7.80245 13.30796,-12.26516 z m 337.53303,-31.36174 c 2.90567,-0.61364 7.11734,-2.0515 9.35926,-3.19524 3.26342,-1.66487 4.6028,-1.87307 6.71697,-1.0441 14.3944,5.64409 30.18518,-3.80171 32.70567,-19.56403 1.40305,-8.77414 -4.88849,-21.30878 -13.11144,-26.12193 -3.5758,-2.09303 -4.8444,-2.26799 -13.27912,-1.83136 -8.25377,0.42726 -9.54682,0.26156 -11.25,-1.44162 -3.80828,-3.80829 -1.84487,-9.64544 3.82563,-11.37348 3.34968,-1.02078 2.74593,-3.81967 -1.80582,-8.37142 -11.46744,-11.46744 -30.65413,-8.32481 -38.1467,6.24814 -2.73732,5.32406 -3.39519,13.92991 -1.48381,19.41023 1.44254,4.13604 1.40111,4.578 -0.8906,9.5 -1.32194,2.83919 -2.40793,6.26648 -2.4133,7.61621 -0.007,1.86444 -5.92462,8.38625 -24.6282,27.1447 -13.54014,13.57986 -24.45264,25.12898 -24.25,25.66472 0.20264,0.53573 4.86843,5.10607 10.36843,10.15631 5.5,5.05023 11.32029,10.5187 12.93398,12.15214 l 2.93399,2.96991 23.56601,-23.40174 c 22.80795,-22.64895 23.73596,-23.43762 28.84905,-24.51744 z m -298.78303,1.7011 c 18.12417,-10.30128 40.17911,-18.03696 61.98239,-21.74008 49.44407,-8.39769 97.85574,1.75736 141.81939,29.74868 2.23951,1.42588 2.93488,0.83452 25.7017,-21.85706 12.86995,-12.82742 23.17009,-23.69444 22.8892,-24.14894 -0.63387,-1.02562 -314.39268,-1.10962 -314.39268,-0.0842 0,0.40821 10.44646,11.19574 23.21435,23.97231 l 23.21434,23.23013 3.53566,-2.14486 c 1.94461,-1.17967 7.36065,-4.31888 12.03565,-6.97601 z"
         id="path4209"
         inkscape:connector-curvature="0" />
      <path
         style="fill:#68972f"
         d="m 222.64285,808.8186 c -11.2113,-3.71975 -20.49023,-12.81046 -24.61084,-24.11163 -1.98813,-5.45264 -2.6653,-6.26858 -6.79861,-8.19179 -2.5248,-1.17478 -7.10487,-4.63417 -10.17792,-7.68754 -7.34703,-7.29996 -10.22224,-14.41162 -10.33296,-25.55787 -0.0708,-7.12879 0.28453,-8.76082 3.19444,-14.67169 4.09957,-8.3274 12.02551,-15.84031 19.76674,-18.73668 3.0438,-1.13883 6.55229,-2.0706 7.79666,-2.0706 1.24437,0 2.80249,-0.54 3.46249,-1.2 0.92344,-0.92344 1.2,-38.48466 1.2,-162.98095 l 0,-161.78095 -2.75,-0.60886 c -10.6911,-2.36706 -16.28241,-5.49597 -23.04629,-12.89673 -6.9842,-7.64183 -9.60778,-14.61394 -9.60778,-25.53251 0,-10.91857 2.62358,-17.89068 9.60778,-25.53251 5.52359,-6.04369 10.94344,-9.60506 17.57306,-11.54722 3.62052,-1.06064 4.57098,-1.91799 6.19411,-5.58734 4.86181,-10.99093 18.01611,-20.08057 30.51166,-21.08359 17.82788,-1.43105 35.54587,12.00302 38.12749,28.90889 0.36465,2.38797 1.10668,4.90427 1.64893,5.59177 1.44761,1.83534 322.0316,1.83534 323.48821,0 0.54562,-0.6875 1.31129,-3.05 1.70146,-5.25 1.17055,-6.60006 4.15281,-12.1983 9.5231,-17.8766 17.54498,-18.55122 47.13654,-13.93312 58.93706,9.19781 1.27469,2.4986 3.29243,4.71402 4.88194,5.36023 13.96746,5.67843 20.69302,11.40365 25.62746,21.81569 2.76981,5.84451 3.08181,7.46466 3.08181,16.00287 0,8.55627 -0.3077,10.14571 -3.09741,16 -5.12183,10.74828 -14.18783,18.44553 -24.90259,21.1429 -2.75,0.6923 -5.5625,1.67346 -6.25,2.18036 -0.99103,0.73069 -1.25,34.34831 -1.25,162.264 0,152.64852 0.0943,161.39106 1.75,162.24593 0.9625,0.49696 3.52907,1.22536 5.70349,1.61867 16.85769,3.04925 29.84993,20.68721 28.20599,38.2918 -1.18286,12.66698 -10.03564,25.43876 -20.99241,30.28546 -3.66935,1.62313 -4.5267,2.57359 -5.58734,6.19411 -3.04116,10.38111 -12.6757,20.89127 -22.83307,24.90821 -8.05776,3.1866 -20.45033,3.18044 -28.53124,-0.0142 -10.7965,-4.26819 -21.35524,-16.53557 -23.34028,-27.11725 -0.36111,-1.925 -1.09835,-4.0625 -1.6383,-4.75 -0.77816,-0.99081 -34.54046,-1.25 -162.8241,-1.25 -158.98535,0 -161.86065,0.0342 -162.87756,1.93426 -0.56935,1.06384 -1.03554,2.75134 -1.03597,3.75 -0.002,3.60547 -5.79636,13.95499 -10.37989,18.53852 -10.30457,10.30458 -25.86142,14.20381 -39.11932,9.80503 z m 24.25831,-14.69387 c 5.8608,-2.77436 9.45087,-6.84106 11.72207,-13.27833 1.83639,-5.20488 1.90756,-8.57645 0.30731,-14.5596 -0.97745,-3.65456 -0.95326,-5.15877 0.12486,-7.76435 0.73544,-1.77741 2.02805,-5.93165 2.87246,-9.23165 1.51066,-5.90375 1.90891,-6.37698 24.82556,-29.5 l 23.29027,-23.5 -11.81785,-12.95581 c -6.49982,-7.1257 -12.37489,-13.14149 -13.05572,-13.36843 -0.68083,-0.22695 -12.34866,10.66567 -25.92852,24.20581 -17.71986,17.66803 -25.33115,24.61843 -26.95932,24.61843 -1.24777,0 -4.51126,0.96474 -7.2522,2.14386 -4.29955,1.84961 -5.50755,1.98686 -8.80141,1 -6.25139,-1.87296 -14.00416,-1.39519 -19.5931,1.20745 -15.84767,7.37989 -18.97043,28.11996 -5.95461,39.54801 3.97714,3.49198 6.7305,3.71409 7.30364,0.5892 0.61143,-3.33359 3.26422,-5.48852 6.75653,-5.48852 5.16787,0 6.43931,2.70078 5.71192,12.13326 -0.95781,12.4207 2.34379,18.5886 12.8078,23.92694 8.57285,4.37354 14.82656,4.44595 23.64031,0.27373 z m 399.74169,1.08502 c 6.06421,-2.53299 11.64069,-7.48276 13.71615,-12.17468 1.70409,-3.85239 1.95717,-5.98492 1.52752,-12.87159 -0.61508,-9.85901 0.53442,-12.37268 5.65805,-12.37268 3.48269,0 5.89489,1.96813 7.04739,5.75 0.93501,3.06821 2.82482,2.82639 7.07501,-0.90532 5.53706,-4.8616 7.9019,-10.20208 7.9019,-17.84468 0,-14.95166 -12.05794,-25.40229 -27.15913,-23.53884 -9.39505,1.15933 -12.4096,0.90656 -19.55809,-1.63992 -6.58189,-2.34464 -7.52593,-3.15346 -30.6308,-26.24329 -13.11178,-13.10324 -24.32383,-23.6562 -24.91567,-23.45102 -0.59184,0.20519 -6.47878,6.22307 -13.0821,13.37307 l -12.00603,13 22.85703,23 c 12.57137,12.65 23.29545,23.9 23.83128,25 0.53583,1.1 1.29604,3.77907 1.68935,5.95349 0.39331,2.17441 1.55324,5.59634 2.57761,7.60428 1.7286,3.38833 1.75382,4.00277 0.35072,8.54652 -2.56819,8.31674 -0.5025,16.33914 5.98176,23.23103 6.93788,7.37403 17.59979,9.56771 27.13805,5.58363 z m -75.5,-63.91895 c -12.91622,-12.925 -23.73769,-23.5 -24.04771,-23.5 -0.31002,0 -5.48861,2.93 -11.50798,6.51111 -33.18309,19.74165 -74.67483,29.52603 -112.5792,26.54788 -32.35664,-2.54227 -60.3898,-11.24027 -86.70814,-26.90342 -5.68867,-3.38556 -10.63508,-6.15557 -10.99202,-6.15557 -0.91876,0 -46.16495,45.32155 -46.16495,46.24185 0,0.41698 70.98391,0.75815 157.74202,0.75815 l 157.74202,0 -23.48404,-23.5 z m -110.5,-19.01813 c 65.09183,-9.80501 118.24015,-55.51386 137.40495,-118.1716 4.07599,-13.32612 5.83031,-22.60364 6.9606,-36.81027 3.97538,-49.96696 -15.19463,-99.74475 -52.01077,-135.05368 -24.62272,-23.61469 -48.79022,-36.8636 -79.93341,-43.82043 -49.36214,-11.02663 -101.52346,0.74434 -141.42137,31.91383 -8.12494,6.34745 -22.78646,20.68568 -28.59073,27.96028 -12.21607,15.31065 -23.35799,36.43489 -29.27332,55.5 -6.16821,19.88019 -7.13407,26.85381 -7.13284,51.5 10e-4,21.65977 0.0524,22.1986 3.31697,34.84233 7.52845,29.15769 19.3186,52.55158 37.46862,74.34486 24.92292,29.92568 64.7073,52.06787 103.7113,57.72101 13.024,1.88766 37.21854,1.92367 49.5,0.0737 z m -36.5,-58.56534 c -27.9685,-2.18704 -56.63929,-14.3834 -78.37594,-33.34061 -4.14703,-3.61676 -8.0567,-6.57592 -8.68815,-6.57592 -0.63146,0 -2.85262,1.35 -4.93591,3 -2.08329,1.65 -4.28014,3 -4.88187,3 -1.07979,0 -13.48415,-14.94719 -12.91292,-15.56001 0.16213,-0.17394 4.56979,-4.74895 9.79479,-10.1667 5.93159,-6.15041 11.2993,-12.91726 14.29019,-18.01506 3.04699,-5.19344 5.26903,-7.98087 6.10603,-7.65968 0.72371,0.27771 4.57075,4.09222 8.54898,8.47668 l 7.23315,7.97174 -3.08917,4.81406 c -1.69905,2.64774 -3.08918,5.27189 -3.08918,5.83146 0,1.32682 9.0095,9.78609 16,15.02286 32.01067,23.98002 80.74319,28.00779 117.23709,9.68971 11.69929,-5.87244 31.76291,-21.46339 31.76291,-24.68217 0,-0.57629 -1.40106,-3.23116 -3.11347,-5.89972 l -3.11347,-4.85193 7.29703,-7.73562 c 9.4313,-9.99817 9.56729,-10.06964 11.69353,-6.14613 4.90498,9.05106 11.97344,18.34933 19.19094,25.24488 4.42499,4.22762 8.04544,7.93088 8.04544,8.22948 0,0.79736 -10.79358,14.19054 -12.07383,14.98178 -0.60036,0.37105 -3.04042,-0.72493 -5.42235,-2.4355 -2.38193,-1.71057 -4.86143,-3.11013 -5.51001,-3.11013 -0.64859,0 -3.95002,2.51751 -7.33653,5.59448 -27.29848,24.80326 -65.62969,37.37387 -104.65728,34.32205 z m -45.57,-122.83292 c -5.12379,-2.29708 -9.73522,-9.04276 -12.69468,-18.57 -1.6959,-5.4595 -2.18392,-9.56183 -2.20242,-18.51361 -0.0359,-17.36031 3.77769,-29.43411 11.50067,-36.41136 12.30167,-11.11382 26.1106,4.56078 27.6761,31.4153 0.72519,12.43993 -0.97632,22.26147 -5.38247,31.06885 -5.37443,10.74284 -11.51463,14.32055 -18.8972,11.01082 z m 106,0 c -5.12379,-2.29708 -9.73522,-9.04276 -12.69468,-18.57 -1.6959,-5.4595 -2.18392,-9.56183 -2.20242,-18.51361 -0.0359,-17.36031 3.77769,-29.43411 11.50067,-36.41136 12.30167,-11.11382 26.1106,4.56078 27.6761,31.4153 0.72519,12.43993 -0.97632,22.26147 -5.38247,31.06885 -5.37443,10.74284 -11.51463,14.32055 -18.8972,11.01082 z M 250.38487,679.04895 c 12.51689,-12.50801 22.75798,-23.04115 22.75798,-23.40696 0,-0.36582 -2.77001,-5.31949 -6.15557,-11.00816 -36.32772,-61.04043 -36.44492,-138.66385 -0.30099,-199.34303 3.27611,-5.5 6.1244,-10.39103 6.32954,-10.86895 0.39383,-0.9175 -44.81366,-46.63105 -46.11483,-46.63105 -0.41698,0 -0.75815,70.65 -0.75815,157 0,86.35 0.33391,157 0.74202,157 0.40811,0 10.98311,-10.23383 23.5,-22.74185 z M 647.14285,544.84982 c 0,-86.31754 -0.37186,-157.17081 -0.82635,-157.4517 -0.4545,-0.28089 -11.32152,10.01925 -24.14894,22.8892 -22.69158,22.76682 -23.28294,23.46219 -21.85706,25.7017 5.23123,8.21627 9.49957,15.94975 13.78,24.96696 28.16971,59.34271 24.49734,129.25462 -9.76162,185.83482 l -5.1467,8.5 23.22236,23.25 c 12.77229,12.7875 23.56344,23.25 23.98033,23.25 0.41689,0 0.75798,-70.62344 0.75798,-156.94098 z m -344.75,-142.57463 c 4.8125,-4.46271 8.75,-8.53141 8.75,-9.04155 0,-0.51014 -10.66546,-11.59994 -23.70102,-24.64399 -22.96329,-22.97825 -23.77632,-23.92784 -26.12022,-30.50766 -2.54648,-7.14848 -2.79925,-10.16303 -1.63992,-19.55808 0.92217,-7.47312 -0.7628,-13.46648 -5.26453,-18.72574 -9.42114,-11.00649 -24.23704,-11.86905 -34.46902,-2.00673 -5.27293,5.08243 -5.99596,7.50174 -2.55529,8.55025 3.78187,1.1525 5.75,3.5647 5.75,7.04739 0,5.10504 -2.56973,6.31063 -12.06408,5.65987 -12.88266,-0.88299 -18.90198,2.45983 -24.46421,13.58617 -4.73686,9.47533 -3.2081,20.65202 3.82897,27.99331 6.6195,6.90566 15.55249,9.42009 24.09503,6.78218 4.54375,-1.4031 5.15819,-1.37788 8.54652,0.35072 2.00794,1.02437 5.42986,2.18521 7.60428,2.57963 2.17442,0.39443 5.07849,1.30199 6.45349,2.01682 1.375,0.71483 12.59892,11.43234 24.94204,23.81669 l 22.44205,22.51701 4.55795,-4.15113 c 2.50688,-2.28313 8.49546,-7.80245 13.30796,-12.26516 z m 337.53303,-31.36174 c 2.90567,-0.61364 7.11734,-2.0515 9.35926,-3.19524 3.26342,-1.66487 4.6028,-1.87307 6.71697,-1.0441 14.3944,5.64409 30.18518,-3.80171 32.70567,-19.56403 1.40305,-8.77414 -4.88849,-21.30878 -13.11144,-26.12193 -3.5758,-2.09303 -4.8444,-2.26799 -13.27912,-1.83136 -8.25377,0.42726 -9.54682,0.26156 -11.25,-1.44162 -3.80828,-3.80829 -1.84487,-9.64544 3.82563,-11.37348 3.34968,-1.02078 2.74593,-3.81967 -1.80582,-8.37142 -11.46744,-11.46744 -30.65413,-8.32481 -38.1467,6.24814 -2.73732,5.32406 -3.39519,13.92991 -1.48381,19.41023 1.44254,4.13604 1.40111,4.578 -0.8906,9.5 -1.32194,2.83919 -2.40793,6.26648 -2.4133,7.61621 -0.007,1.86444 -5.92462,8.38625 -24.6282,27.1447 -13.54014,13.57986 -24.45264,25.12898 -24.25,25.66472 0.20264,0.53573 4.86843,5.10607 10.36843,10.15631 5.5,5.05023 11.32029,10.5187 12.93398,12.15214 l 2.93399,2.96991 23.56601,-23.40174 c 22.80795,-22.64895 23.73596,-23.43762 28.84905,-24.51744 z m -298.78303,1.7011 c 18.12417,-10.30128 40.17911,-18.03696 61.98239,-21.74008 49.44407,-8.39769 97.85574,1.75736 141.81939,29.74868 2.23951,1.42588 2.93488,0.83452 25.7017,-21.85706 12.86995,-12.82742 23.17009,-23.69444 22.8892,-24.14894 -0.63387,-1.02562 -314.39268,-1.10962 -314.39268,-0.0842 0,0.40821 10.44646,11.19574 23.21435,23.97231 l 23.21434,23.23013 3.53566,-2.14486 c 1.94461,-1.17967 7.36065,-4.31888 12.03565,-6.97601 z"
         id="path4207"
         inkscape:connector-curvature="0" />
      <path
         style="fill:#595959"
         d="m 222.64285,808.8186 c -11.2113,-3.71975 -20.49023,-12.81046 -24.61084,-24.11163 -1.98813,-5.45264 -2.6653,-6.26858 -6.79861,-8.19179 -2.5248,-1.17478 -7.10487,-4.63417 -10.17792,-7.68754 -7.34703,-7.29996 -10.22224,-14.41162 -10.33296,-25.55787 -0.0708,-7.12879 0.28453,-8.76082 3.19444,-14.67169 4.09957,-8.3274 12.02551,-15.84031 19.76674,-18.73668 3.0438,-1.13883 6.55229,-2.0706 7.79666,-2.0706 1.24437,0 2.80249,-0.54 3.46249,-1.2 0.92344,-0.92344 1.2,-38.48466 1.2,-162.98095 l 0,-161.78095 -2.75,-0.60886 c -10.6911,-2.36706 -16.28241,-5.49597 -23.04629,-12.89673 -6.9842,-7.64183 -9.60778,-14.61394 -9.60778,-25.53251 0,-10.91857 2.62358,-17.89068 9.60778,-25.53251 5.52359,-6.04369 10.94344,-9.60506 17.57306,-11.54722 3.62052,-1.06064 4.57098,-1.91799 6.19411,-5.58734 4.86181,-10.99093 18.01611,-20.08057 30.51166,-21.08359 17.82788,-1.43105 35.54587,12.00302 38.12749,28.90889 0.36465,2.38797 1.10668,4.90427 1.64893,5.59177 1.44761,1.83534 322.0316,1.83534 323.48821,0 0.54562,-0.6875 1.31129,-3.05 1.70146,-5.25 1.17055,-6.60006 4.15281,-12.1983 9.5231,-17.8766 17.54498,-18.55122 47.13654,-13.93312 58.93706,9.19781 1.27469,2.4986 3.29243,4.71402 4.88194,5.36023 13.96746,5.67843 20.69302,11.40365 25.62746,21.81569 2.76981,5.84451 3.08181,7.46466 3.08181,16.00287 0,8.55627 -0.3077,10.14571 -3.09741,16 -5.12183,10.74828 -14.18783,18.44553 -24.90259,21.1429 -2.75,0.6923 -5.5625,1.67346 -6.25,2.18036 -0.99103,0.73069 -1.25,34.34831 -1.25,162.264 0,152.64852 0.0943,161.39106 1.75,162.24593 0.9625,0.49696 3.52907,1.22536 5.70349,1.61867 16.85769,3.04925 29.84993,20.68721 28.20599,38.2918 -1.18286,12.66698 -10.03564,25.43876 -20.99241,30.28546 -3.66935,1.62313 -4.5267,2.57359 -5.58734,6.19411 -3.04116,10.38111 -12.6757,20.89127 -22.83307,24.90821 -8.05776,3.1866 -20.45033,3.18044 -28.53124,-0.0142 -10.7965,-4.26819 -21.35524,-16.53557 -23.34028,-27.11725 -0.36111,-1.925 -1.09835,-4.0625 -1.6383,-4.75 -0.77816,-0.99081 -34.54046,-1.25 -162.8241,-1.25 -158.98535,0 -161.86065,0.0342 -162.87756,1.93426 -0.56935,1.06384 -1.03554,2.75134 -1.03597,3.75 -0.002,3.60547 -5.79636,13.95499 -10.37989,18.53852 -10.30457,10.30458 -25.86142,14.20381 -39.11932,9.80503 z m 24.25831,-14.69387 c 5.8608,-2.77436 9.45087,-6.84106 11.72207,-13.27833 1.83639,-5.20488 1.90756,-8.57645 0.30731,-14.5596 -0.97745,-3.65456 -0.95326,-5.15877 0.12486,-7.76435 0.73544,-1.77741 2.02805,-5.93165 2.87246,-9.23165 1.51066,-5.90375 1.90891,-6.37698 24.82556,-29.5 l 23.29027,-23.5 -11.81785,-12.95581 c -6.49982,-7.1257 -12.37489,-13.14149 -13.05572,-13.36843 -0.68083,-0.22695 -12.34866,10.66567 -25.92852,24.20581 -17.71986,17.66803 -25.33115,24.61843 -26.95932,24.61843 -1.24777,0 -4.51126,0.96474 -7.2522,2.14386 -4.29955,1.84961 -5.50755,1.98686 -8.80141,1 -6.25139,-1.87296 -14.00416,-1.39519 -19.5931,1.20745 -15.84767,7.37989 -18.97043,28.11996 -5.95461,39.54801 3.97714,3.49198 6.7305,3.71409 7.30364,0.5892 0.61143,-3.33359 3.26422,-5.48852 6.75653,-5.48852 5.16787,0 6.43931,2.70078 5.71192,12.13326 -0.95781,12.4207 2.34379,18.5886 12.8078,23.92694 8.57285,4.37354 14.82656,4.44595 23.64031,0.27373 z m 399.74169,1.08502 c 6.06421,-2.53299 11.64069,-7.48276 13.71615,-12.17468 1.70409,-3.85239 1.95717,-5.98492 1.52752,-12.87159 -0.61508,-9.85901 0.53442,-12.37268 5.65805,-12.37268 3.48269,0 5.89489,1.96813 7.04739,5.75 0.93501,3.06821 2.82482,2.82639 7.07501,-0.90532 5.53706,-4.8616 7.9019,-10.20208 7.9019,-17.84468 0,-14.95166 -12.05794,-25.40229 -27.15913,-23.53884 -9.39505,1.15933 -12.4096,0.90656 -19.55809,-1.63992 -6.58189,-2.34464 -7.52593,-3.15346 -30.6308,-26.24329 -13.11178,-13.10324 -24.32383,-23.6562 -24.91567,-23.45102 -0.59184,0.20519 -6.47878,6.22307 -13.0821,13.37307 l -12.00603,13 22.85703,23 c 12.57137,12.65 23.29545,23.9 23.83128,25 0.53583,1.1 1.29604,3.77907 1.68935,5.95349 0.39331,2.17441 1.55324,5.59634 2.57761,7.60428 1.7286,3.38833 1.75382,4.00277 0.35072,8.54652 -2.56819,8.31674 -0.5025,16.33914 5.98176,23.23103 6.93788,7.37403 17.59979,9.56771 27.13805,5.58363 z M 595.6974,755.70253 c 0.85166,-1.37801 -46.405,-48.91173 -48.62665,-48.91173 -0.89506,0 -5.8575,2.55106 -11.02764,5.66902 -61.2825,36.95767 -139.55216,36.47629 -201.6766,-1.24036 -4.99229,-3.03089 -8.23312,-4.39032 -9.62509,-4.03743 -2.91464,0.73894 -48.98986,47.16663 -48.15274,48.52112 0.95439,1.54424 318.15433,1.54362 319.10872,-6.2e-4 z M 450.64285,713.72372 C 544.16624,705.56817 613.36629,623.84178 605.32565,531.0408 600.63359,476.8873 572.94226,430.95053 526.64285,400.51495 482.12586,371.25107 423.40566,365.85711 372.54086,386.35934 291.94455,418.84555 248.06105,508.10169 272.27634,590.2908 c 21.57269,73.21989 85.31373,122.18824 161.86651,124.35216 2.475,0.07 9.9,-0.34369 16.5,-0.91924 z M 416.6639,652.7357 c -27.35235,-4.25534 -51.1957,-15.37142 -71.94917,-33.54365 l -7.59526,-6.65059 -4.65242,3.62467 c -2.55883,1.99357 -4.99616,3.62467 -5.41628,3.62467 -0.99032,0 -11.90792,-14.03893 -11.90792,-15.31237 0,-0.5335 3.5594,-4.43036 7.90977,-8.65968 7.24275,-7.0412 17.09675,-20.32241 18.60572,-25.07676 0.34061,-1.07315 1.16272,-1.95119 1.82693,-1.95119 1.7382,0 15.65758,14.26057 15.65758,16.04138 0,0.82189 -1.125,3.14994 -2.5,5.17343 -1.375,2.0235 -2.5,4.32345 -2.5,5.11101 0,1.92134 12.12846,13.25201 19.2026,17.93948 8.86426,5.87364 23.3837,12.44733 33.7974,15.30181 11.49281,3.15026 34.78621,4.40001 47,2.52166 16.39509,-2.52138 35.09005,-9.96666 47.34687,-18.85592 7.57443,-5.49335 17.65313,-15.20179 17.65313,-17.0046 0,-0.7339 -1.125,-2.98994 -2.5,-5.01344 -1.375,-2.02349 -2.5,-4.35154 -2.5,-5.17343 0,-1.70844 13.88474,-16.04138 15.53976,-16.04138 0.5994,0 1.89202,1.6875 2.8725,3.75 3.16881,6.66583 10.84442,16.56714 18.85222,24.3188 l 7.8189,7.56881 -6.13141,7.68119 c -3.37228,4.22466 -6.42854,7.67683 -6.79169,7.67149 -0.36316,-0.005 -2.63611,-1.58033 -5.05101,-3.5 -2.4149,-1.91966 -4.58799,-3.49029 -4.82908,-3.49029 -0.24109,0 -3.77182,2.90727 -7.84605,6.46061 -18.42526,16.06953 -39.7211,26.83129 -63.43414,32.05614 -8.84391,1.94864 -39.35576,2.84749 -48.47895,1.42815 z M 375.61342,528.63082 c -13.34309,-11.71539 -16.10021,-46.70155 -5.12344,-65.01327 5.41,-9.02511 11.87227,-11.81969 18.28704,-7.90815 7.13436,4.35032 11.76564,14.28953 13.66426,29.32494 3.76175,29.78991 -12.48422,56.19036 -26.82786,43.59648 z m 106,0 c -13.34309,-11.71539 -16.10021,-46.70155 -5.12344,-65.01327 5.41,-9.02511 11.87227,-11.81969 18.28704,-7.90815 7.13436,4.35032 11.76564,14.28953 13.66426,29.32494 3.76175,29.78991 -12.48422,56.19036 -26.82786,43.59648 z M 251.39285,680.06237 c 12.5125,-12.57915 22.75,-23.62031 22.75,-24.53591 0,-0.9156 -2.02458,-4.99947 -4.49906,-9.07528 -37.62704,-61.97684 -38.08198,-140.35383 -1.16996,-201.56064 3.11796,-5.17014 5.66902,-10.13258 5.66902,-11.02764 0,-2.22165 -47.53372,-49.47831 -48.91173,-48.62665 -1.18638,0.73322 -1.64042,317.66907 -0.45679,318.8527 1.21809,1.21809 4.05223,-1.34007 26.61852,-24.02658 z m 396.75,-135.21255 c 0,-113.42108 -0.3115,-159.1335 -1.08765,-159.61319 -1.21442,-0.75056 -47.58468,44.94641 -48.48404,47.78006 -0.34956,1.10134 1.38736,5.00229 4.58271,10.29236 11.4478,18.9524 19.86134,40.44535 24.54934,62.71291 3.20105,15.20469 4.43916,45.66415 2.49695,61.42898 -3.47456,28.20282 -14.21595,58.97178 -27.97099,80.1236 -2.24748,3.45606 -4.08632,6.82761 -4.08632,7.49235 0,1.61088 47.13069,48.72391 48.74219,48.72391 1.00514,0 1.25781,-31.92829 1.25781,-158.94098 z m -345.75,-142.57463 c 4.8125,-4.46271 8.75,-8.53141 8.75,-9.04155 0,-0.51014 -10.66546,-11.59994 -23.70102,-24.64399 -22.96329,-22.97825 -23.77632,-23.92784 -26.12022,-30.50766 -2.54648,-7.14848 -2.79925,-10.16303 -1.63992,-19.55808 0.92217,-7.47312 -0.7628,-13.46648 -5.26453,-18.72574 -9.42114,-11.00649 -24.23704,-11.86905 -34.46902,-2.00673 -5.27293,5.08243 -5.99596,7.50174 -2.55529,8.55025 3.78187,1.1525 5.75,3.5647 5.75,7.04739 0,5.10504 -2.56973,6.31063 -12.06408,5.65987 -12.88266,-0.88299 -18.90198,2.45983 -24.46421,13.58617 -4.73686,9.47533 -3.2081,20.65202 3.82897,27.99331 6.6195,6.90566 15.55249,9.42009 24.09503,6.78218 4.54375,-1.4031 5.15819,-1.37788 8.54652,0.35072 2.00794,1.02437 5.42986,2.18521 7.60428,2.57963 2.17442,0.39443 5.07849,1.30199 6.45349,2.01682 1.375,0.71483 12.59892,11.43234 24.94204,23.81669 l 22.44205,22.51701 4.55795,-4.15113 c 2.50688,-2.28313 8.49546,-7.80245 13.30796,-12.26516 z m 337.53303,-31.36174 c 2.90567,-0.61364 7.11734,-2.0515 9.35926,-3.19524 3.26342,-1.66487 4.6028,-1.87307 6.71697,-1.0441 14.3944,5.64409 30.18518,-3.80171 32.70567,-19.56403 1.40305,-8.77414 -4.88849,-21.30878 -13.11144,-26.12193 -3.5758,-2.09303 -4.8444,-2.26799 -13.27912,-1.83136 -8.25377,0.42726 -9.54682,0.26156 -11.25,-1.44162 -3.80828,-3.80829 -1.84487,-9.64544 3.82563,-11.37348 3.34968,-1.02078 2.74593,-3.81967 -1.80582,-8.37142 -11.46744,-11.46744 -30.65413,-8.32481 -38.1467,6.24814 -2.73732,5.32406 -3.39519,13.92991 -1.48381,19.41023 1.44254,4.13604 1.40111,4.578 -0.8906,9.5 -1.32194,2.83919 -2.40793,6.26648 -2.4133,7.61621 -0.007,1.86444 -5.92462,8.38625 -24.6282,27.1447 -13.54014,13.57986 -24.45264,25.12898 -24.25,25.66472 0.20264,0.53573 4.86843,5.10607 10.36843,10.15631 5.5,5.05023 11.32029,10.5187 12.93398,12.15214 l 2.93399,2.96991 23.56601,-23.40174 c 22.80795,-22.64895 23.73596,-23.43762 28.84905,-24.51744 z m -306.56677,7.78596 c 19.99471,-13.0187 49.87719,-23.75393 76.48285,-27.47635 17.63992,-2.46801 48.37086,-1.5229 65.06973,2.00117 22.2944,4.70494 43.77154,13.11442 62.71291,24.55555 5.29007,3.19535 9.19102,4.93227 10.29236,4.58271 2.83365,-0.89936 48.53062,-47.26962 47.78006,-48.48404 -1.04072,-1.68393 -318.55417,-1.52974 -318.55417,0.15469 0,1.612 47.09807,48.75766 48.70845,48.75766 0.67323,0 4.05175,-1.84112 7.50781,-4.09139 z"
         id="path4205"
         inkscape:connector-curvature="0" />
      <path
         style="fill:#040402"
         d="m 228.42347,810.14479 c -5.16175,-1.12815 -16.66583,-7.68657 -20.88664,-11.90738 -4.02572,-4.02571 -5.93774,-7.33682 -10.19824,-17.66058 -0.70899,-1.71796 -3.001,-3.66713 -6.24539,-5.31119 -6.65956,-3.37465 -12.97936,-9.76495 -15.82439,-16.00092 -1.24809,-2.73566 -2.73083,-5.82548 -3.29498,-6.86627 -1.24081,-2.28915 -1.32091,-16.66085 -0.0976,-17.50665 0.4781,-0.33055 1.71251,-2.851 2.74313,-5.601 2.65562,-7.08595 11.325,-15.53375 18.81834,-18.33737 3.17908,-1.18945 6.69285,-2.16263 7.80837,-2.16263 1.11553,0 2.89865,-0.46583 3.96249,-1.03518 1.90015,-1.01693 1.93426,-3.89787 1.93426,-163.37756 0,-128.67813 -0.25921,-162.54809 -1.25,-163.33443 -0.6875,-0.54562 -3.05,-1.31368 -5.25,-1.70679 -9.45218,-1.68898 -20.94147,-10.48931 -24.89774,-19.07066 -0.88124,-1.91146 -2.38976,-5.16288 -3.35226,-7.22538 -2.0322,-4.35471 -2.37666,-15.64988 -0.59006,-19.34861 0.63797,-1.32077 2.12152,-4.49945 3.29678,-7.06374 4.29499,-9.37123 11.92356,-15.63661 25.20074,-20.6975 1.7558,-0.66926 3.75732,-3.07649 5.8991,-7.09489 3.89619,-7.31 9.25052,-12.36676 16.82343,-15.88844 4.65541,-2.16495 7.08252,-2.61723 14.14104,-2.63517 7.63254,-0.0194 9.21586,0.32041 15.18482,3.25892 4.24322,2.08894 8.30253,5.10325 11.17522,8.29837 4.33512,4.8217 8.61893,13.7802 8.61893,18.02431 0,1.11553 0.46583,2.89865 1.03518,3.96249 1.01691,1.90011 3.89221,1.93426 162.87756,1.93426 128.2814,0 162.04682,-0.25921 162.8283,-1.25 0.54225,-0.6875 1.2816,-3.18708 1.64299,-5.55462 1.6088,-10.53959 9.08402,-20.33128 19.39758,-25.40863 5.96812,-2.9381 7.58247,-3.28675 15.21839,-3.28675 7.58768,0 9.26593,0.35688 15.02103,3.1942 7.67362,3.78318 12.99952,8.94992 16.79292,16.29107 2.45427,4.74961 3.33152,5.54328 7.8095,7.06539 10.46828,3.55828 18.54814,10.80281 23.23107,20.82933 2.25454,4.82716 2.62485,6.96023 2.62485,15.12001 0,8.18248 -0.36753,10.28706 -2.65009,15.17515 -4.98732,10.6803 -14.10752,18.35994 -25.25084,21.2624 -3.08135,0.80259 -6.04705,1.73403 -6.59045,2.06987 -0.64409,0.39807 -0.98799,57.14035 -0.98799,163.01641 0,159.5424 0.0341,162.42405 1.93426,163.44099 1.06384,0.56935 2.84696,1.03518 3.96249,1.03518 4.24411,0 13.20261,4.28381 18.02431,8.61893 3.19512,2.87269 6.20943,6.932 8.29837,11.17522 2.93851,5.96896 3.27831,7.55228 3.25892,15.18482 -0.0179,7.05852 -0.47022,9.48563 -2.63517,14.14104 -3.52168,7.57291 -8.57844,12.92724 -15.88844,16.82343 -4.0184,2.14178 -6.42563,4.1433 -7.0949,5.8991 -4.82452,12.65709 -11.26045,20.80978 -19.38446,24.5552 -1.91146,0.88124 -5.16288,2.38976 -7.22538,3.35226 -2.36264,1.10256 -6.15476,1.75 -10.25,1.75 -4.09524,0 -7.88736,-0.64744 -10.25,-1.75 -2.0625,-0.9625 -5.31392,-2.47102 -7.22538,-3.35226 -8.58135,-3.95627 -17.38168,-15.44556 -19.07066,-24.89774 -0.39311,-2.2 -1.16117,-4.5625 -1.70679,-5.25 -1.26958,-1.59968 -326.25221,-1.85988 -327.23975,-0.26201 -0.33584,0.5434 -1.28579,3.5809 -2.11102,6.75 -0.82522,3.16911 -2.59044,7.62241 -3.92271,9.89624 -3.34067,5.70163 -11.5875,12.86844 -17.25179,14.99245 -2.59704,0.97385 -4.95938,2.10846 -5.24963,2.52136 -0.65886,0.93726 -12.69034,1.86191 -15.69165,1.20595 z m 18.27499,-13.72769 c 6.30817,-2.93743 12.03276,-9.50109 13.96692,-16.01412 1.85753,-6.255 1.84649,-7.6658 -0.11476,-14.65563 -1.51369,-5.39476 -1.4957,-5.86658 0.3648,-9.56561 1.07636,-2.14001 2.2428,-5.46939 2.59208,-7.3986 0.52667,-2.90906 4.73083,-7.60078 24.6352,-27.49219 13.20008,-13.19149 24.00015,-24.4095 24.00015,-24.92891 0,-0.51941 -4.94174,-5.92351 -10.98165,-12.00911 -6.03991,-6.0856 -11.69043,-12.07664 -12.55671,-13.31343 -0.86627,-1.23678 -2.32514,-2.2487 -3.24193,-2.2487 -0.91678,0 -12.47876,10.76868 -25.69329,23.9304 -17.41173,17.34214 -24.85235,24.10549 -27.02642,24.56636 -1.65,0.34978 -5.13009,1.57955 -7.73353,2.73283 -4.10317,1.81762 -5.25055,1.94195 -8.61602,0.93363 -17.69273,-5.30087 -34.57647,6.33867 -34.57647,23.83678 0,7.56849 2.31108,12.84972 8.07103,18.44371 4.95193,4.80926 7.60753,4.68681 9.62285,-0.44371 1.4216,-3.61903 1.90891,-4 5.11651,-4 4.79548,0 5.57291,1.86405 4.89605,11.7393 -0.51118,7.45785 -0.32576,8.64774 2.12957,13.66626 2.78666,5.69572 9.04429,11.24318 15.09001,13.37747 5.48552,1.93652 14.53347,1.41467 20.05561,-1.15673 z m 399.48176,0.86051 c 12.32623,-4.34894 18.8808,-15.70095 16.78443,-29.06933 -1.03494,-6.59973 0.52414,-9.41748 5.21074,-9.41748 3.1111,0 4.51287,1.34058 5.49547,5.25559 1.05285,4.19486 4.64895,3.62008 9.84212,-1.57309 6.96757,-6.96757 9.2987,-16.70108 6.14236,-25.6471 -4.69645,-13.31115 -19.22702,-20.19729 -33.55832,-15.90352 -3.26359,0.97779 -4.37738,0.84166 -8.18175,-1 -2.42213,-1.17253 -5.47862,-2.13188 -6.79219,-2.13188 -1.78416,0 -8.60422,-6.19771 -26.9602,-24.5 -13.51453,-13.475 -25.32223,-24.5 -26.23934,-24.5 -0.9171,0 -4.05544,2.57027 -6.97408,5.71172 -2.91863,3.14145 -8.79411,9.16231 -13.05661,13.37969 -4.2625,4.21738 -7.75,8.04794 -7.75,8.51236 0,0.46441 11.025,11.90173 24.5,25.41626 17.57983,17.6314 24.5,25.21267 24.5,26.84054 0,1.24777 0.95207,4.48182 2.11572,7.18679 2.07135,4.81499 2.07951,5.05189 0.38893,11.2974 -1.59771,5.90242 -1.60794,6.78203 -0.13678,11.76726 2.05113,6.95052 4.59218,10.99299 9.04496,14.38929 7.11473,5.42667 17.12639,6.98383 25.62454,3.9855 z m -49.66606,-41.19145 c 0.69115,-0.69115 -48.18368,-50.29536 -49.55582,-50.29536 -0.38473,0 -4.8881,2.55449 -10.0075,5.67665 -22.34333,13.6265 -48.02468,22.69226 -74.80799,26.40794 -12.03631,1.66981 -39.75289,1.71013 -51.5,0.0749 -26.29053,-3.65967 -52.37737,-12.79626 -74.23675,-26.00049 -5.60788,-3.38744 -10.54537,-6.159 -10.97219,-6.159 -1.32184,0 -49.29106,48.4084 -49.29106,49.74235 0,1.00496 32.11455,1.25765 159.83333,1.25765 87.90834,0 160.15043,-0.31709 160.53798,-0.70464 z M 465.75347,712.73858 c 60.72657,-10.19965 112.62124,-54.78444 132.3671,-113.72188 13.94944,-41.6363 11.05627,-88.16998 -7.95647,-127.97142 -13.62143,-28.51524 -34.48743,-52.1408 -62.02125,-70.22366 -18.17661,-11.9375 -37.53894,-19.85597 -59.30296,-24.25268 -15.16294,-3.06318 -47.84437,-3.27663 -63.19704,-0.41274 -61.286,11.43228 -112.22065,55.7445 -131.85182,114.70868 -6.41468,19.26715 -8.12221,30.6443 -8.09343,53.92592 0.0288,23.3318 1.42774,32.11168 8.50202,53.36099 21.56103,64.76381 78.87184,110.22989 146.94323,116.57371 12.4235,1.15779 30.74651,0.34169 44.61062,-1.98692 z M 421.14285,652.7551 c -17.34201,-2.12278 -33.35284,-7.00544 -48.5,-14.79058 -9.14109,-4.69821 -25.59333,-16.43773 -30.93709,-22.0752 -3.64753,-3.84801 -4.81363,-3.86002 -9.56291,-0.0985 -2.08329,1.65 -4.23486,3 -4.78127,3 -0.90209,0 -12.21873,-13.28436 -12.21873,-14.34331 0,-0.2475 3.42411,-3.75901 7.60914,-7.80335 7.90503,-7.63928 14.59899,-16.28189 18.30458,-23.63315 1.49059,-2.95707 2.55666,-4.03879 3.44936,-3.5 0.71062,0.4289 4.34462,4.03752 8.07556,8.01916 l 6.78352,7.23935 -3.11108,4.8482 c -1.71109,2.66651 -3.11108,5.3197 -3.11108,5.89599 0,1.90423 13.2548,13.48806 21.82851,19.07668 37.00925,24.12385 86.33373,24.12385 123.34298,0 8.57371,-5.58862 21.82851,-17.17245 21.82851,-19.07668 0,-0.57629 -1.42122,-3.26257 -3.15826,-5.96951 l -3.15825,-4.92172 8.0629,-8.0629 8.0629,-8.0629 2.21717,4.39707 c 3.84785,7.63103 10.46588,16.16058 18.34878,23.64857 4.19362,3.98352 7.62476,7.49308 7.62476,7.79902 0,1.31908 -11.19866,14.44566 -12.29259,14.40884 -0.66408,-0.0224 -2.76541,-1.37235 -4.66964,-3 -1.90422,-1.62765 -4.0736,-2.95936 -4.82084,-2.95936 -0.74724,0 -4.442,2.76062 -8.21058,6.13471 -18.40245,16.47612 -42.35531,28.12612 -66.50635,32.34682 -11.3022,1.9752 -30.68093,2.68468 -40.5,1.48277 z M 378.36103,530.16793 c -5.66634,-2.86226 -10.24707,-11.06745 -12.63637,-22.63477 -3.9533,-19.13914 0.25244,-40.84269 9.54062,-49.234 7.16816,-6.476 15.19195,-4.0243 20.70963,6.32793 4.20719,7.89349 6.13542,16.74747 6.15316,28.25375 0.0392,25.43467 -11.47375,43.49684 -23.76704,37.28709 z m 106,0 c -5.66634,-2.86226 -10.24707,-11.06745 -12.63637,-22.63477 -3.9533,-19.13914 0.25244,-40.84269 9.54062,-49.234 7.16816,-6.476 15.19195,-4.0243 20.70963,6.32793 4.20719,7.89349 6.13542,16.74747 6.15316,28.25375 0.0392,25.43467 -11.47375,43.49684 -23.76704,37.28709 z M 250.88535,680.54845 c 13.34162,-13.33329 24.2575,-24.59839 24.2575,-25.03355 0,-0.43516 -2.77156,-5.37947 -6.15902,-10.98735 -13.20423,-21.85938 -22.34082,-47.94622 -26.00049,-74.23675 -1.63522,-11.74711 -1.59489,-39.46369 0.0749,-51.5 3.71568,-26.78331 12.78144,-52.46466 26.40794,-74.80799 3.12216,-5.1194 5.67665,-9.62277 5.67665,-10.0075 0,-1.37214 -49.60421,-50.24697 -50.29536,-49.55582 -0.38755,0.38755 -0.70464,72.62964 -0.70464,160.53798 0,126.68528 0.25768,159.83333 1.2425,159.83333 0.68337,0 12.15837,-10.90906 25.5,-24.24235 z M 648.87931,545.27712 c 0.14945,-100.48456 -0.11741,-159.53827 -0.72523,-160.48632 -0.76741,-1.19697 -5.82799,3.34855 -25.04955,22.5 -13.24832,13.2 -24.48895,24.71959 -24.97919,25.5991 -0.64769,1.16199 0.37298,3.62212 3.73397,9 2.54391,4.07049 7.20215,12.8009 10.35162,19.4009 28.05834,58.79862 24.62984,127.65732 -9.17528,184.27836 -2.86395,4.7969 -5.41272,9.09913 -5.66393,9.5605 -0.71452,1.31229 48.06414,49.75136 49.76945,49.42296 1.32688,-0.25552 1.5292,-18.79599 1.73814,-159.2755 z M 293.07349,413.0408 c 4.2485,-4.2625 10.27713,-10.13798 13.39695,-13.05661 3.11983,-2.91864 5.67241,-6.05698 5.67241,-6.97408 0,-0.91711 -11.025,-12.72481 -24.5,-26.23934 -18.30229,-18.35598 -24.5,-25.17604 -24.5,-26.9602 0,-1.31358 -0.95934,-4.37006 -2.13188,-6.79219 -1.84166,-3.80437 -1.97779,-4.91816 -1,-8.18175 2.00502,-6.69216 1.42319,-15.06856 -1.44671,-20.8277 -7.74384,-15.53986 -27.84938,-18.84279 -40.10391,-6.58826 -5.19317,5.19317 -5.76795,8.78927 -1.57309,9.84212 1.50942,0.37884 3.30942,1.15772 4,1.73085 1.87217,1.55377 1.51661,6.25096 -0.61951,8.18412 -1.60275,1.45048 -2.74559,1.55675 -7.86848,0.73174 -10.2252,-1.64672 -18.23476,1.27833 -24.23084,8.84901 -7.82714,9.88256 -8.04468,23.76313 -0.52689,33.61946 3.3963,4.45278 7.43877,6.99383 14.38929,9.04496 4.98083,1.46986 5.86704,1.46034 11.72747,-0.12601 6.16391,-1.66849 6.48551,-1.65915 11.61202,0.33743 2.89989,1.12939 6.39753,2.28756 7.77253,2.5737 1.54594,0.32171 11.65597,9.69113 26.49219,24.5515 13.1957,13.21719 24.37957,24.03125 24.85305,24.03125 0.47348,0 4.33691,-3.4875 8.5854,-7.75 z m 320.08939,-16.75 c 17.6314,-17.57983 25.21267,-24.5 26.84054,-24.5 1.24777,0 4.49505,-0.95777 7.21619,-2.12837 4.82077,-2.07384 5.10194,-2.08504 10.97463,-0.43725 14.04906,3.94197 27.1705,-4.07019 31.59587,-19.29293 1.32066,-4.54291 1.39453,-6.37685 0.4304,-10.68503 -3.30681,-14.7764 -15.73124,-23.70998 -29.79208,-21.42152 -6.57065,1.0694 -10.2965,-0.49344 -10.27027,-4.30795 0.0221,-3.20724 1.07834,-4.45031 5.26974,-6.20158 4.29217,-1.79339 4.34605,-1.97813 1.79635,-6.15954 -5.46711,-8.96586 -17.6879,-13.32558 -28.46538,-10.15493 -5.55961,1.6356 -14.76952,10.8455 -16.40512,16.40512 -1.52586,5.18662 -1.43608,12.83845 0.20396,17.38267 1.12682,3.12221 1.01209,4.03684 -1.06631,8.5 -1.28096,2.75072 -2.33341,6.08876 -2.33878,7.41786 -0.007,1.81353 -6.12339,8.5618 -24.50977,27.04335 -13.475,13.54474 -24.5,24.99731 -24.5,25.45015 0,1.07145 26.19734,27.23127 27.47408,27.43472 0.53574,0.0854 12.03142,-10.86977 25.54595,-24.34477 z M 335.36449,377.898 c 56.62104,-33.80512 125.47974,-37.23362 184.27836,-9.17529 6.6,3.14948 15.33041,7.80772 19.4009,10.35163 5.37788,3.36099 7.83801,4.38166 9,3.73397 0.87951,-0.49024 12.3991,-11.73087 25.5991,-24.97919 19.14269,-19.21277 23.69642,-24.28213 22.5,-25.04778 -0.94184,-0.60273 -60.58309,-0.96561 -160.28138,-0.97523 -145.26206,-0.014 -158.83417,0.12222 -159.40123,1.59998 -0.4494,1.17111 6.13347,8.35258 23.93915,26.11601 13.50745,13.47541 24.93801,24.29426 25.40123,24.04191 0.46323,-0.25235 4.76697,-2.80206 9.56387,-5.66601 z"
         id="path4203"
         inkscape:connector-curvature="0" />
    </g>
  </g>
</svg>
