<svg width="50" height="50" viewBox="0 0 50 50" fill="none" xmlns="http://www.w3.org/2000/svg">
<path fill-rule="evenodd" clip-rule="evenodd" d="M8.92632 17.4417C8.24352 8.825 14.6135 0 25.2635 0C28.7941 0 32.5078 0.9 35.6304 2.38333C44.0987 6.38333 49.9608 15.0083 49.9608 25C49.9608 34.2333 44.9564 42.3 37.4956 46.625C41.0928 43.0917 43.2244 38.025 42.7748 32.4083C42.0503 23.225 33.3988 15.75 25.5466 15.75C18.244 15.75 15.3879 22.125 16.0957 26.4583C16.3622 28.0833 17.0616 29.5667 18.0775 30.775C16.7618 30.0667 15.4878 29.1583 14.3138 28.0667C11.1496 25.1167 9.23441 21.3417 8.92632 17.4417ZM41.0345 32.5583C41.7173 41.175 35.3473 50 24.6973 50C21.1667 50 17.453 49.1 14.3304 47.6167C5.86207 43.6167 0 34.9917 0 25C0 15.7667 5.00441 7.7 12.4652 3.375C8.86804 6.90833 6.73638 11.975 7.18603 17.5917C7.91046 26.775 16.562 34.25 24.4142 34.25C31.7168 34.25 34.5729 27.875 33.8651 23.5417C33.5986 21.9167 32.8992 20.4333 31.8833 19.225C33.1989 19.9333 34.4729 20.8417 35.647 21.9333C38.8112 24.8833 40.7264 28.6583 41.0345 32.5583Z" fill="#0053D6"/>
</svg>
