<svg viewBox="0 0 174 123" xmlns="http://www.w3.org/2000/svg">
  <defs>
    <style>.cls-1{fill:#fff;}.cls-2{fill:none;stroke:#e1e2e6;}.cls-3{fill:#1d63ed;}</style>
  </defs>
  <g id="Layer_2" data-name="Layer 2">
    <g id="Layer_1-2" data-name="Layer 1">
      <path class="cls-3" d="M 151.233 44.846 C 150.333 38.226 146.693 32.476 140.073 27.286 L 136.263 24.716 L 133.723 28.576 C 130.334 34.108 128.812 40.583 129.383 47.046 C 129.71 50.633 130.852 54.098 132.723 57.176 C 128.654 59.256 124.121 60.265 119.553 60.106 L 1.363 60.106 L 1.133 61.476 C 0.023 68.116 0.033 88.836 13.323 104.756 C 23.413 116.856 38.543 122.996 58.323 122.996 C 101.123 122.996 132.803 102.996 147.643 66.736 C 153.473 66.856 166.043 66.736 172.493 54.296 C 172.653 54.016 173.053 53.246 174.173 50.886 L 174.793 49.596 L 171.173 47.146 C 167.253 44.476 158.233 43.506 151.283 44.846 L 151.233 44.846 Z M 95.863 0.536 L 77.863 0.536 L 77.863 17.086 L 95.863 17.086 L 95.863 0.536 Z M 95.863 20.396 L 77.863 20.396 L 77.863 36.946 L 95.863 36.946 L 95.863 20.396 Z M 74.623 20.396 L 56.623 20.396 L 56.623 36.946 L 74.623 36.946 L 74.623 20.396 Z M 53.383 20.396 L 35.383 20.396 L 35.383 36.946 L 53.383 36.946 L 53.383 20.396 Z M 32.143 40.266 L 14.143 40.266 L 14.143 56.816 L 32.143 56.816 L 32.143 40.266 Z M 53.383 40.266 L 35.383 40.266 L 35.383 56.816 L 53.383 56.816 L 53.383 40.266 Z M 74.623 40.266 L 56.623 40.266 L 56.623 56.816 L 74.623 56.816 L 74.623 40.266 Z M 95.863 40.266 L 77.863 40.266 L 77.863 56.816 L 95.863 56.816 L 95.863 40.266 Z M 117.103 40.266 L 99.103 40.266 L 99.103 56.816 L 117.103 56.816 L 117.103 40.266 Z"></path>
    </g>
  </g>
</svg>