<svg xmlns="http://www.w3.org/2000/svg" width="24" height="24" fill="none" class="d-block mt-3 ml-3">
<rect x=".75" y="1.275" width="22.5" height="22.5" rx="11.25"></rect>
<mask id="a" style="mask-type:alpha" maskUnits="userSpaceOnUse" x="0" y="0" width="24" height="24">
<path fill-rule="evenodd" clip-rule="evenodd" d="M12 .75C5.646.75.5 5.896.5 12.25c0 5.089 3.292 9.387 7.863 10.91.575.101.79-.244.79-.546 0-.273-.014-1.178-.014-2.142-2.889.532-3.636-.704-3.866-1.35-.13-.331-.69-1.352-1.18-1.625-.402-.216-.977-.748-.014-.762.906-.014 1.553.834 1.769 1.179 1.035 1.74 2.688 1.25 3.349.948.1-.747.402-1.25.733-1.538-2.559-.287-5.232-1.279-5.232-5.678 0-1.25.445-2.285 1.178-3.09-.115-.288-.517-1.467.115-3.048 0 0 .963-.302 3.163 1.179.92-.259 1.897-.388 2.875-.388.977 0 1.955.13 2.875.388 2.2-1.495 3.162-1.179 3.162-1.179.633 1.581.23 2.76.115 3.048.733.805 1.179 1.825 1.179 3.09 0 4.413-2.688 5.39-5.247 5.678.417.36.776 1.05.776 2.128 0 1.538-.014 2.774-.014 3.162 0 .302.216.662.79.547 4.543-1.524 7.835-5.837 7.835-10.911C23.5 5.896 18.354.75 12 .75Z" fill="#fff"></path>
</mask>
<g mask="url(#a)">
<path fill="#005BBB" d="M0 0h24v12H0z"></path>
<path fill="#FFD500" d="M0 12h24v12H0z"></path>
</g>
</svg>