<?xml version="1.0" encoding="UTF-8" standalone="no"?>
<svg
   xmlns:dc="http://purl.org/dc/elements/1.1/"
   xmlns:cc="http://creativecommons.org/ns#"
   xmlns:rdf="http://www.w3.org/1999/02/22-rdf-syntax-ns#"
   xmlns:svg="http://www.w3.org/2000/svg"
   xmlns="http://www.w3.org/2000/svg"
   xmlns:sodipodi="http://sodipodi.sourceforge.net/DTD/sodipodi-0.dtd"
   xmlns:inkscape="http://www.inkscape.org/namespaces/inkscape"
   inkscape:version="1.0beta1 (32d4812, 2019-09-19)"
   height="26.738739"
   width="59.671822"
   sodipodi:docname="neurips-logo-new.svg"
   id="svg19"
   version="1.1">
  <metadata
     id="metadata25">
    <rdf:RDF>
      <cc:Work
         rdf:about="">
        <dc:format>image/svg+xml</dc:format>
        <dc:type
           rdf:resource="http://purl.org/dc/dcmitype/StillImage" />
        <dc:title></dc:title>
      </cc:Work>
    </rdf:RDF>
  </metadata>
  <defs
     id="defs23" />
  <sodipodi:namedview
     inkscape:current-layer="svg19"
     inkscape:window-maximized="0"
     inkscape:window-y="42"
     inkscape:window-x="225"
     inkscape:cy="72.762668"
     inkscape:cx="148.22482"
     inkscape:zoom="4.67"
     fit-margin-bottom="1"
     fit-margin-right="1"
     fit-margin-left="1"
     fit-margin-top="1"
     inkscape:document-units="cm"
     showgrid="false"
     id="namedview21"
     inkscape:window-height="1209"
     inkscape:window-width="1600"
     inkscape:pageshadow="2"
     inkscape:pageopacity="0"
     guidetolerance="10"
     gridtolerance="10"
     objecttolerance="10"
     borderopacity="1"
     inkscape:document-rotation="0"
     bordercolor="#666666"
     pagecolor="#ffffff" />
  <g
     transform="translate(-1.7751795,-2.2373323)"
     height="31px"
     width="62px"
     id="cvpage2_top">
    <path
       inkscape:connector-curvature="0"
       id="path10"
       stroke="none"
       fill-rule="evenodd"
       fill="#68448B"
       d="M 6.534,10.011 C 7.038,10.317 7.613,10.245 7.83,9.856 8.048,9.465 7.831,8.882 7.331,8.551 6.817,8.209 6.204,8.264 5.979,8.683 5.757,9.098 6.011,9.696 6.534,10.011 m 5.967,-0.996 c 0,0 -0.012,-0.003 -0.012,-0.003 0.431,-0.184 1.312,-0.123 2.033,0.74 0.156,0.214 0.412,0.306 0.624,0.208 C 15.394,9.846 15.494,9.511 15.369,9.206 15.24,8.895 14.926,8.731 14.666,8.845 14.657,8.849 14.649,8.853 14.64,8.857 13.989,9.08 13.142,8.669 12.554,7.88 12.542,7.861 12.529,7.843 12.515,7.826 c 0,0 0,-10e-4 0,-10e-4 -0.224,-0.286 -0.562,-0.415 -0.839,-0.32 0,0 0,-0.001 0,-0.001 0,0 -10e-4,0.001 -10e-4,0.001 -0.026,0.009 -0.052,0.02 -0.078,0.033 C 10.38,8.057 9.741,7.861 9.111,7.002 9.031,6.872 8.926,6.748 8.796,6.641 8.311,6.241 7.676,6.22 7.394,6.607 7.112,6.994 7.301,7.622 7.803,8.001 c 0.292,0.22 0.625,0.305 0.902,0.258 0,0 0.002,0 0.002,0 0.035,-0.007 0.07,-0.015 0.104,-0.025 0.626,-0.149 2.003,-0.422 2.616,0.409 0.007,0.011 0.014,0.022 0.021,0.033 0.02,0.03 0.041,0.059 0.063,0.086 0,0 0,0 0,0 0.547,1.076 0.345,1.74 -0.1,2.546 -0.014,0.021 -0.026,0.042 -0.037,0.066 -0.121,0.27 0.034,0.61 0.342,0.754 0.3,0.142 0.636,0.043 0.754,-0.217 0.077,-0.17 0.044,-0.371 -0.07,-0.532 -0.614,-0.925 -0.407,-2.158 0.101,-2.364 M 12.476,9.009 c 0,0 -0.017,-0.005 -0.017,-0.005 0,0 0.005,-0.003 0.005,-0.003 0,0 0.013,-0.009 0.013,-0.009 0,0 -10e-4,0.017 -10e-4,0.017 0,0 0,0 0,0 m 3.25,-2.932 C 14.963,6.223 14.001,5.768 13.735,4.869 13.727,4.831 13.717,4.793 13.706,4.755 c 0,0 0,0 0,0 C 13.693,4.713 13.678,4.671 13.661,4.629 13.433,4.067 12.903,3.727 12.48,3.884 c -0.427,0.159 -0.563,0.759 -0.307,1.322 0.19,0.422 0.545,0.697 0.881,0.727 0,0 0.003,0 0.003,0 0.015,0.001 0.029,0.002 0.044,0.002 1.115,0.061 1.789,0.316 2.26,1.101 0.103,0.311 0.344,0.529 0.595,0.555 0,0 0,0 0,0 0.796,0.141 1.438,0.495 1.616,1.055 0.062,0.21 0.225,0.359 0.407,0.358 C 18.2,9.003 18.37,8.779 18.363,8.5 18.356,8.219 18.166,7.984 17.939,7.979 c -0.017,0 -0.033,0.001 -0.049,0.003 0,0 0,0 0,0 -0.022,0.003 -0.043,0.008 -0.063,0.015 -0.615,0.122 -1.295,-0.413 -1.314,-0.862 0.01,-0.042 0.017,-0.087 0.02,-0.132 0.238,-0.963 0.56,-1.513 1.438,-1.804 0.034,-0.007 0.066,-0.017 0.097,-0.03 0,0 0,0 0,0 0.254,-0.11 0.426,-0.435 0.416,-0.84 -0.013,-0.533 -0.337,-1.016 -0.73,-1.066 -0.346,-0.048 -0.621,0.258 -0.668,0.701 0,0 0,0 0,0 0,0 0,10e-4 0,10e-4 -0.006,0.06 -0.008,0.121 -0.006,0.185 -0.045,1.184 -0.197,1.785 -1.285,1.916 -0.011,0 -0.022,0.002 -0.034,0.004 -0.012,0.002 -0.023,0.004 -0.035,0.007 m 6.572,-0.149 c -0.187,0.976 0.029,1.434 0.342,1.849 0.032,0.013 0.064,0.032 0.093,0.058 0.006,0.005 0.011,0.01 0.016,0.016 0.513,0.491 0.973,0.451 1.542,-0.101 0.174,-0.189 0.4,-0.186 0.531,0.018 0.145,0.225 0.119,0.608 -0.052,0.859 C 24.609,8.861 24.373,8.904 24.221,8.735 23.666,8.312 23.382,8.273 22.664,8.712 22.553,8.791 22.422,8.795 22.317,8.707 22.194,8.604 22.138,8.405 22.167,8.208 c 0,0 0,-0.002 0,-0.002 C 22.169,8.192 22.172,8.178 22.175,8.164 22.274,7.582 22.169,6.92 21.552,6.297 21.319,6.107 21.215,5.682 21.325,5.304 c 0.119,-0.413 0.443,-0.6 0.716,-0.414 0.224,0.15 0.339,0.502 0.298,0.842 0,0 0,10e-4 0,10e-4 -0.007,0.066 -0.021,0.131 -0.041,0.195 0,0 0,0 0,0 M 6.615,12.664 C 7.146,12.855 7.663,12.676 7.783,12.263 7.907,11.848 7.582,11.335 7.047,11.119 6.496,10.895 5.941,11.073 5.824,11.515 5.707,11.954 6.068,12.467 6.615,12.664 M 26.081,9.846 c -0.112,0.121 -0.151,0.332 -0.088,0.468 0.061,0.133 0.197,0.146 0.306,0.03 0.108,-0.117 0.15,-0.322 0.093,-0.46 -0.059,-0.141 -0.199,-0.16 -0.311,-0.038 m -7.04,-1.451 c -0.033,0.269 0.11,0.52 0.317,0.565 0.203,0.044 0.396,-0.132 0.432,-0.394 0.037,-0.265 -0.098,-0.523 -0.307,-0.575 -0.209,-0.052 -0.41,0.13 -0.442,0.404 m -3.059,0.547 c 0.076,0.321 0.346,0.528 0.603,0.469 0.255,-0.057 0.406,-0.355 0.341,-0.67 -0.067,-0.322 -0.335,-0.543 -0.598,-0.489 -0.266,0.054 -0.422,0.366 -0.346,0.69 m -2.744,1.768 c 0.193,0.275 0.533,0.356 0.761,0.188 0.229,-0.168 0.266,-0.525 0.081,-0.803 -0.189,-0.284 -0.535,-0.378 -0.772,-0.206 -0.239,0.172 -0.269,0.542 -0.07,0.821 M 20.816,7.308 C 20.728,7.609 20.834,7.945 21.048,8.056 21.257,8.165 21.497,8.02 21.587,7.729 21.677,7.434 21.582,7.097 21.371,6.976 21.156,6.852 20.905,7.001 20.816,7.308 M 19.173,6.744 c -0.043,0.36 0.138,0.704 0.401,0.774 0.259,0.07 0.505,-0.154 0.553,-0.502 0.05,-0.351 -0.12,-0.705 -0.384,-0.787 -0.269,-0.081 -0.526,0.151 -0.57,0.515 M 17.275,6.619 c 0.019,0.41 0.291,0.744 0.598,0.755 0.302,0.01 0.537,-0.299 0.525,-0.698 -0.01,-0.406 -0.271,-0.757 -0.583,-0.777 -0.319,-0.023 -0.563,0.303 -0.54,0.72 m -3.863,1.048 c 0.18,0.403 0.579,0.61 0.894,0.474 C 14.617,8.006 14.737,7.578 14.573,7.176 14.403,6.765 14,6.533 13.673,6.668 13.342,6.804 13.226,7.255 13.412,7.667 m -3.858,3.541 c 0.409,0.169 0.84,0.033 0.972,-0.299 C 10.658,10.577 10.444,10.162 10.04,9.976 9.626,9.788 9.171,9.914 9.034,10.262 c -0.136,0.347 0.101,0.773 0.52,0.946 M 25.316,8.865 c -0.167,0.18 -0.225,0.495 -0.132,0.698 0.092,0.199 0.295,0.218 0.457,0.044 C 25.803,9.434 25.865,9.128 25.78,8.922 25.692,8.711 25.484,8.683 25.316,8.865 M 22.957,6.437 c -0.152,0.322 -0.104,0.74 0.098,0.933 0.2,0.189 0.477,0.092 0.626,-0.215 C 23.831,6.847 23.797,6.433 23.602,6.229 23.401,6.02 23.11,6.112 22.957,6.437 M 19.345,4.529 c -0.06,0.497 0.177,0.982 0.518,1.097 0.333,0.11 0.654,-0.179 0.721,-0.653 C 20.653,4.492 20.436,3.988 20.093,3.856 19.742,3.722 19.404,4.026 19.345,4.529 M 14.637,4.38 c 0.136,0.562 0.574,0.954 0.979,0.894 0.397,-0.059 0.629,-0.54 0.519,-1.09 C 16.019,3.622 15.586,3.193 15.165,3.241 14.736,3.288 14.499,3.805 14.637,4.38 M 9.741,6.457 c 0.356,0.495 0.934,0.678 1.299,0.421 0.363,-0.255 0.397,-0.86 0.064,-1.367 C 10.761,4.987 10.163,4.767 9.774,5.032 9.384,5.3 9.373,5.944 9.741,6.457" />
    <path
       inkscape:connector-curvature="0"
       id="path12"
       stroke="none"
       fill-rule="evenodd"
       fill="#916BA4"
       d="m 14.806,26.844 c 0.021,-0.59 -0.322,-1.056 -0.767,-1.056 -0.448,0 -0.851,0.473 -0.897,1.071 -0.048,0.616 0.299,1.124 0.774,1.117 0.471,-0.009 0.87,-0.522 0.89,-1.132 m -3.778,-4.726 c 0,0 0.003,0.012 0.003,0.012 -0.37,-0.286 -0.746,-1.085 -0.344,-2.135 0.111,-0.242 0.066,-0.51 -0.122,-0.646 -0.221,-0.162 -0.562,-0.086 -0.767,0.172 -0.209,0.264 -0.199,0.618 0.027,0.79 0.007,0.006 0.015,0.011 0.023,0.017 0.512,0.459 0.566,1.399 0.163,2.297 -0.01,0.02 -0.02,0.04 -0.028,0.061 0,0 0,0 0,0 -0.142,0.335 -0.09,0.693 0.128,0.889 0,0 10e-4,0 10e-4,0 0.021,0.019 0.044,0.036 0.067,0.053 1.046,0.81 1.187,1.463 0.743,2.431 -0.075,0.133 -0.131,0.286 -0.162,0.452 -0.112,0.619 0.179,1.182 0.654,1.24 0.476,0.058 0.932,-0.413 1.018,-1.036 0.05,-0.362 -0.038,-0.694 -0.214,-0.913 0,0 -10e-4,-0.002 -10e-4,-0.002 -0.023,-0.027 -0.048,-0.054 -0.073,-0.079 -0.435,-0.474 -1.344,-1.543 -0.917,-2.484 0.006,-0.011 0.012,-0.022 0.018,-0.034 0.017,-0.032 0.032,-0.064 0.044,-0.097 0.673,-1.002 1.352,-1.149 2.272,-1.153 0.025,0.002 0.051,0.002 0.076,0 0.295,-0.026 0.516,-0.326 0.492,-0.665 -0.022,-0.332 -0.272,-0.577 -0.557,-0.553 -0.186,0.015 -0.346,0.141 -0.43,0.32 -0.509,0.987 -1.686,1.407 -2.114,1.063 m 0.007,0.025 c 0,0 0.005,0.018 0.005,0.018 0,0 -0.006,-0.003 -0.006,-0.003 0,0 -0.014,-0.007 -0.014,-0.007 0,0 0.015,-0.008 0.015,-0.008 0,0 0,0 0,0 M 6.891,20.734 c 0.5,0.595 0.571,1.657 -0.085,2.327 -0.029,0.026 -0.057,0.052 -0.085,0.081 -0.03,0.032 -0.06,0.065 -0.088,0.101 -0.38,0.473 -0.419,1.102 -0.075,1.394 0.347,0.295 0.937,0.122 1.304,-0.376 0.276,-0.372 0.343,-0.816 0.205,-1.124 0,0 -10e-4,-0.002 -10e-4,-0.002 -0.006,-0.013 -0.013,-0.027 -0.02,-0.04 -0.49,-1.003 -0.595,-1.715 -0.14,-2.509 0.222,-0.242 0.295,-0.559 0.195,-0.791 0,0 0,0 0,0 C 7.836,19.032 7.833,18.298 8.235,17.87 8.388,17.714 8.439,17.498 8.349,17.34 8.24,17.147 7.962,17.108 7.722,17.25 7.48,17.394 7.367,17.674 7.474,17.874 c 0.008,0.015 0.017,0.029 0.026,0.041 0,0 0,0.001 0,0.001 0.014,0.018 0.028,0.033 0.044,0.048 0.406,0.477 0.271,1.331 -0.112,1.567 C 7.39,19.543 7.348,19.559 7.306,19.578 6.349,19.839 5.712,19.826 5.03,19.201 5.008,19.175 4.984,19.152 4.957,19.132 c 0,0 0,-0.001 0,-0.001 -0.22,-0.168 -0.588,-0.16 -0.936,0.046 -0.459,0.271 -0.723,0.79 -0.576,1.157 0.127,0.326 0.529,0.417 0.938,0.242 0,0 0,0 0,0 0,0 0.001,0 0.001,0 0.055,-0.024 0.11,-0.052 0.165,-0.085 1.055,-0.539 1.654,-0.698 2.298,0.188 0.007,0.009 0.014,0.019 0.021,0.028 0.007,0.009 0.015,0.018 0.023,0.027 M 3.559,15.068 c 0.943,-0.312 1.237,-0.725 1.448,-1.2 -0.005,-0.035 -0.004,-0.071 0.005,-0.11 0.002,-0.007 0.004,-0.014 0.006,-0.021 0.179,-0.688 -0.08,-1.07 -0.839,-1.297 -0.25,-0.06 -0.358,-0.259 -0.243,-0.473 0.125,-0.236 0.472,-0.401 0.775,-0.373 0.282,0.026 0.436,0.211 0.362,0.427 -0.099,0.69 0.005,0.958 0.738,1.371 0.123,0.057 0.19,0.17 0.165,0.305 -0.03,0.157 -0.177,0.303 -0.362,0.374 0,0 -0.002,10e-4 -0.002,10e-4 -0.014,0.005 -0.027,0.009 -0.041,0.013 -0.557,0.197 -1.084,0.612 -1.327,1.455 -0.052,0.296 -0.373,0.593 -0.756,0.682 -0.419,0.096 -0.74,-0.095 -0.711,-0.425 0.022,-0.267 0.273,-0.539 0.59,-0.67 0,0 10e-4,0 10e-4,0 0.061,-0.026 0.125,-0.046 0.19,-0.059 0,0 0.001,0 0.001,0 M 17.082,25.48 c -0.091,-0.556 -0.5,-0.921 -0.918,-0.824 -0.423,0.094 -0.713,0.627 -0.641,1.2 0.074,0.59 0.499,0.988 0.942,0.875 0.44,-0.112 0.713,-0.678 0.617,-1.251 M 5.136,9.855 C 5.297,9.894 5.5,9.825 5.588,9.704 5.675,9.586 5.619,9.46 5.465,9.422 5.31,9.384 5.111,9.448 5.019,9.565 4.924,9.685 4.975,9.816 5.136,9.855 M 7.299,16.71 C 7.551,16.607 7.7,16.36 7.639,16.158 7.577,15.959 7.33,15.876 7.084,15.972 6.835,16.069 6.675,16.313 6.731,16.52 c 0.057,0.209 0.314,0.296 0.568,0.19 m 1.969,2.404 C 9.511,18.891 9.56,18.555 9.385,18.36 9.211,18.165 8.876,18.178 8.632,18.388 c -0.248,0.215 -0.31,0.556 -0.134,0.761 0.176,0.205 0.524,0.189 0.77,-0.035 m 2.882,1.535 c 0.145,-0.303 0.05,-0.639 -0.208,-0.756 -0.257,-0.118 -0.587,0.023 -0.74,0.32 -0.156,0.304 -0.069,0.652 0.196,0.775 0.267,0.124 0.605,-0.03 0.752,-0.339 m -6.665,-4.96 c 0.307,-0.07 0.548,-0.325 0.541,-0.567 -0.007,-0.236 -0.25,-0.374 -0.548,-0.311 -0.302,0.065 -0.55,0.312 -0.552,0.555 -0.004,0.249 0.248,0.395 0.559,0.323 m 0.309,1.71 c 0.336,-0.137 0.548,-0.464 0.48,-0.727 -0.065,-0.26 -0.38,-0.366 -0.707,-0.239 -0.331,0.128 -0.558,0.449 -0.501,0.719 0.06,0.275 0.389,0.386 0.728,0.247 M 6.61,19.117 C 6.958,18.9 7.118,18.501 6.978,18.227 6.839,17.959 6.455,17.904 6.112,18.109 c -0.349,0.206 -0.529,0.605 -0.395,0.888 0.136,0.29 0.54,0.343 0.893,0.12 M 9.408,21.98 C 9.671,21.626 9.658,21.177 9.385,20.968 9.116,20.762 8.684,20.867 8.413,21.205 8.136,21.554 8.13,22.019 8.407,22.239 8.688,22.461 9.138,22.342 9.408,21.98 m 4.972,1.643 c -0.053,-0.439 -0.381,-0.75 -0.735,-0.703 -0.355,0.047 -0.614,0.436 -0.578,0.879 0.037,0.453 0.369,0.79 0.74,0.739 0.369,-0.05 0.625,-0.465 0.573,-0.915 M 4.652,11.001 c 0.239,0.058 0.542,-0.044 0.675,-0.225 0.129,-0.177 0.046,-0.364 -0.184,-0.421 -0.231,-0.056 -0.528,0.039 -0.667,0.213 -0.141,0.18 -0.064,0.375 0.176,0.433 m -0.97,3.243 c 0.355,-0.024 0.697,-0.27 0.767,-0.54 0.067,-0.266 -0.153,-0.461 -0.493,-0.442 -0.342,0.019 -0.687,0.25 -0.77,0.521 -0.085,0.277 0.138,0.486 0.496,0.461 m 0.094,4.084 C 4.238,18.138 4.547,17.695 4.481,17.341 4.415,16.997 4.006,16.857 3.56,17.029 c -0.454,0.175 -0.788,0.609 -0.736,0.973 0.054,0.372 0.483,0.519 0.952,0.326 M 5.94,22.512 C 6.365,22.12 6.493,21.546 6.244,21.221 5.998,20.903 5.465,20.935 5.039,21.299 c -0.435,0.376 -0.598,0.963 -0.351,1.307 0.25,0.351 0.818,0.307 1.252,-0.094 m 4.2,3.263 c 0.258,-0.552 0.137,-1.146 -0.265,-1.34 -0.401,-0.193 -0.946,0.073 -1.226,0.611 -0.291,0.554 -0.191,1.184 0.23,1.395 0.424,0.21 0.992,-0.095 1.261,-0.666" />
    <path
       inkscape:connector-curvature="0"
       id="path14"
       stroke="none"
       fill-rule="nonzero"
       fill="#323539"
       d="m 15.131,12.986 c 0,0 0,2.083 0,2.083 0,0 -0.466,0 -0.466,0 0,0 0,-2.958 0,-2.958 0,0 0.366,0 0.366,0 0,0 1.692,2.133 1.692,2.133 0,0 0,-2.129 0,-2.129 0,0 0.471,0 0.471,0 0,0 0,2.954 0,2.954 0,0 -0.388,0 -0.388,0 0,0 -1.675,-2.083 -1.675,-2.083 0,0 0,0 0,0 m 4.759,1.67 c 0,0 0,0.413 0,0.413 0,0 -2.03,0 -2.03,0 0,0 0,-2.958 0,-2.958 0,0 1.992,0 1.992,0 0,0 0,0.412 0,0.412 0,0 -1.525,0 -1.525,0 0,0 0,0.842 0,0.842 0,0 1.321,0 1.321,0 0,0 0,0.387 0,0.387 0,0 -1.321,0 -1.321,0 0,0 0,0.904 0,0.904 0,0 1.563,0 1.563,0 0,0 0,0 0,0 m 1.716,0.013 c 0.156,0 0.285,-0.031 0.388,-0.092 0.102,-0.061 0.185,-0.141 0.248,-0.239 0.062,-0.099 0.107,-0.212 0.133,-0.338 0.026,-0.126 0.04,-0.256 0.04,-0.389 0,0 0,-1.5 0,-1.5 0,0 0.47,0 0.47,0 0,0 0,1.5 0,1.5 0,0.202 -0.023,0.394 -0.071,0.572 -0.047,0.18 -0.122,0.337 -0.225,0.471 -0.103,0.135 -0.235,0.241 -0.398,0.319 -0.162,0.078 -0.357,0.116 -0.585,0.116 -0.236,0 -0.435,-0.04 -0.598,-0.122 -0.162,-0.082 -0.294,-0.192 -0.394,-0.33 -0.1,-0.137 -0.172,-0.295 -0.216,-0.472 -0.045,-0.178 -0.067,-0.363 -0.067,-0.554 0,0 0,-1.5 0,-1.5 0,0 0.467,0 0.467,0 0,0 0,1.5 0,1.5 0,0.136 0.013,0.267 0.039,0.394 0.027,0.126 0.071,0.238 0.134,0.337 0.062,0.098 0.145,0.178 0.25,0.237 0.104,0.06 0.232,0.09 0.385,0.09 m 1.9,0.4 c 0,0 0,-2.958 0,-2.958 0,0 1.288,0 1.288,0 0.133,0 0.256,0.028 0.368,0.083 0.112,0.056 0.209,0.128 0.29,0.219 0.08,0.09 0.144,0.192 0.189,0.308 0.046,0.115 0.069,0.233 0.069,0.352 0,0.1 -0.014,0.196 -0.041,0.288 -0.028,0.091 -0.067,0.176 -0.117,0.254 -0.05,0.078 -0.111,0.145 -0.183,0.202 -0.073,0.057 -0.152,0.099 -0.238,0.127 0,0 0.696,1.125 0.696,1.125 0,0 -0.53,0 -0.53,0 0,0 -0.641,-1.029 -0.641,-1.029 0,0 -0.683,0 -0.683,0 0,0 0,1.029 0,1.029 0,0 -0.467,0 -0.467,0 m 0.467,-1.442 c 0,0 0.817,0 0.817,0 0.066,0 0.126,-0.014 0.18,-0.043 0.054,-0.03 0.101,-0.07 0.14,-0.121 0.039,-0.052 0.069,-0.111 0.092,-0.177 0.022,-0.067 0.033,-0.138 0.033,-0.213 0,-0.075 -0.013,-0.146 -0.039,-0.213 -0.027,-0.066 -0.062,-0.124 -0.105,-0.174 -0.043,-0.051 -0.093,-0.09 -0.15,-0.119 -0.057,-0.029 -0.115,-0.044 -0.177,-0.044 0,0 -0.791,0 -0.791,0 0,0 0,1.104 0,1.104 m 3.112,-1.516 c 0,0 0.409,0 0.409,0 0,0 1.166,2.958 1.166,2.958 0,0 -0.492,0 -0.492,0 0,0 -0.312,-0.804 -0.312,-0.804 0,0 -1.142,0 -1.142,0 0,0 -0.308,0.804 -0.308,0.804 0,0 -0.496,0 -0.496,0 0,0 1.175,-2.958 1.175,-2.958 0,0 0,0 0,0 m 0.679,1.808 c 0,0 -0.475,-1.271 -0.475,-1.271 0,0 -0.491,1.271 -0.491,1.271 0,0 0.966,0 0.966,0 0,0 0,0 0,0 m 1.263,1.15 c 0,0 0,-2.958 0,-2.958 0,0 0.466,0 0.466,0 0,0 0,2.545 0,2.545 0,0 1.588,0 1.588,0 0,0 0,0.413 0,0.413 0,0 -2.054,0 -2.054,0 0,0 0,0 0,0 m 3.35,0 c 0,0 0,-2.958 0,-2.958 0,0 0.466,0 0.466,0 0,0 0,2.958 0,2.958 0,0 -0.466,0 -0.466,0 0,0 0,0 0,0 m 1.599,-2.083 c 0,0 0,2.083 0,2.083 0,0 -0.466,0 -0.466,0 0,0 0,-2.958 0,-2.958 0,0 0.366,0 0.366,0 0,0 1.692,2.133 1.692,2.133 0,0 0,-2.129 0,-2.129 0,0 0.471,0 0.471,0 0,0 0,2.954 0,2.954 0,0 -0.387,0 -0.387,0 0,0 -1.676,-2.083 -1.676,-2.083 0,0 0,0 0,0 m 2.73,2.083 c 0,0 0,-2.958 0,-2.958 0,0 1.97,0 1.97,0 0,0 0,0.412 0,0.412 0,0 -1.504,0 -1.504,0 0,0 0,0.884 0,0.884 0,0 1.259,0 1.259,0 0,0 0,0.387 0,0.387 0,0 -1.259,0 -1.259,0 0,0 0,1.275 0,1.275 0,0 -0.466,0 -0.466,0 0,0 0,0 0,0 m 3.575,0.02 c -0.212,0 -0.404,-0.042 -0.578,-0.126 -0.173,-0.085 -0.322,-0.198 -0.447,-0.338 -0.126,-0.14 -0.222,-0.3 -0.29,-0.481 -0.068,-0.181 -0.102,-0.365 -0.102,-0.554 0,-0.197 0.036,-0.386 0.108,-0.567 0.072,-0.181 0.172,-0.34 0.298,-0.479 0.127,-0.139 0.276,-0.249 0.45,-0.332 0.174,-0.081 0.363,-0.122 0.569,-0.122 0.211,0 0.403,0.043 0.577,0.131 0.174,0.087 0.322,0.202 0.446,0.344 0.123,0.141 0.219,0.302 0.287,0.481 0.068,0.179 0.102,0.362 0.102,0.548 0,0.197 -0.035,0.386 -0.106,0.567 -0.071,0.18 -0.17,0.339 -0.298,0.476 -0.128,0.138 -0.278,0.248 -0.452,0.33 -0.174,0.082 -0.362,0.122 -0.564,0.122 M 39.339,13.59 c 0,0.139 0.022,0.273 0.067,0.404 0.044,0.13 0.107,0.246 0.189,0.346 0.082,0.1 0.181,0.18 0.298,0.239 0.117,0.06 0.247,0.09 0.392,0.09 0.15,0 0.282,-0.032 0.398,-0.094 0.115,-0.063 0.213,-0.145 0.293,-0.248 0.081,-0.102 0.142,-0.218 0.184,-0.345 0.042,-0.128 0.062,-0.259 0.062,-0.392 0,-0.142 -0.022,-0.277 -0.066,-0.407 -0.045,-0.128 -0.108,-0.243 -0.19,-0.341 -0.082,-0.099 -0.181,-0.178 -0.296,-0.238 -0.115,-0.059 -0.244,-0.089 -0.385,-0.089 -0.15,0 -0.284,0.031 -0.4,0.093 -0.117,0.063 -0.216,0.144 -0.296,0.244 -0.081,0.1 -0.143,0.215 -0.185,0.344 -0.043,0.129 -0.065,0.26 -0.065,0.394 m 2.846,1.479 c 0,0 0,-2.958 0,-2.958 0,0 1.287,0 1.287,0 0.133,0 0.256,0.028 0.369,0.083 0.112,0.056 0.209,0.128 0.289,0.219 0.081,0.09 0.144,0.192 0.19,0.308 0.046,0.115 0.069,0.233 0.069,0.352 0,0.1 -0.014,0.196 -0.042,0.288 -0.028,0.091 -0.067,0.176 -0.117,0.254 -0.05,0.078 -0.111,0.145 -0.183,0.202 -0.072,0.057 -0.151,0.099 -0.238,0.127 0,0 0.696,1.125 0.696,1.125 0,0 -0.529,0 -0.529,0 0,0 -0.641,-1.029 -0.641,-1.029 0,0 -0.684,0 -0.684,0 0,0 0,1.029 0,1.029 0,0 -0.466,0 -0.466,0 m 0.466,-1.442 c 0,0 0.817,0 0.817,0 0.066,0 0.127,-0.014 0.181,-0.043 0.054,-0.03 0.101,-0.07 0.14,-0.121 0.039,-0.052 0.069,-0.111 0.091,-0.177 0.023,-0.067 0.033,-0.138 0.033,-0.213 0,-0.075 -0.012,-0.146 -0.039,-0.213 -0.026,-0.066 -0.061,-0.124 -0.104,-0.174 -0.043,-0.051 -0.093,-0.09 -0.15,-0.119 -0.057,-0.029 -0.116,-0.044 -0.177,-0.044 0,0 -0.792,0 -0.792,0 0,0 0,1.104 0,1.104 m 4.775,1.442 c 0,0 0,-2.129 0,-2.129 0,0 -0.879,1.612 -0.879,1.612 0,0 -0.259,0 -0.259,0 0,0 -0.883,-1.612 -0.883,-1.612 0,0 0,2.129 0,2.129 0,0 -0.466,0 -0.466,0 0,0 0,-2.958 0,-2.958 0,0 0.499,0 0.499,0 0,0 0.98,1.808 0.98,1.808 0,0 0.979,-1.808 0.979,-1.808 0,0 0.5,0 0.5,0 0,0 0,2.958 0,2.958 0,0 -0.471,0 -0.471,0 0,0 0,0 0,0 m 2.008,-2.958 c 0,0 0.409,0 0.409,0 0,0 1.166,2.958 1.166,2.958 0,0 -0.492,0 -0.492,0 0,0 -0.312,-0.804 -0.312,-0.804 0,0 -1.141,0 -1.141,0 0,0 -0.309,0.804 -0.309,0.804 0,0 -0.496,0 -0.496,0 0,0 1.175,-2.958 1.175,-2.958 0,0 0,0 0,0 m 0.679,1.808 c 0,0 -0.475,-1.271 -0.475,-1.271 0,0 -0.491,1.271 -0.491,1.271 0,0 0.966,0 0.966,0 0,0 0,0 0,0 m 3.142,-1.396 c 0,0 -0.983,0 -0.983,0 0,0 0,2.546 0,2.546 0,0 -0.471,0 -0.471,0 0,0 0,-2.546 0,-2.546 0,0 -0.988,0 -0.988,0 0,0 0,-0.412 0,-0.412 0,0 2.442,0 2.442,0 0,0 0,0.412 0,0.412 0,0 0,0 0,0 m 0.396,2.546 c 0,0 0,-2.958 0,-2.958 0,0 0.467,0 0.467,0 0,0 0,2.958 0,2.958 0,0 -0.467,0 -0.467,0 0,0 0,0 0,0 m 2.362,0.02 c -0.211,0 -0.403,-0.042 -0.577,-0.126 -0.173,-0.085 -0.323,-0.198 -0.448,-0.338 -0.125,-0.14 -0.221,-0.3 -0.289,-0.481 -0.068,-0.181 -0.102,-0.365 -0.102,-0.554 0,-0.197 0.036,-0.386 0.108,-0.567 0.072,-0.181 0.172,-0.34 0.298,-0.479 0.126,-0.139 0.276,-0.249 0.45,-0.332 0.173,-0.081 0.363,-0.122 0.569,-0.122 0.211,0 0.403,0.043 0.577,0.131 0.173,0.087 0.322,0.202 0.446,0.344 0.123,0.141 0.219,0.302 0.287,0.481 0.068,0.179 0.102,0.362 0.102,0.548 0,0.197 -0.035,0.386 -0.106,0.567 -0.071,0.18 -0.17,0.339 -0.298,0.476 -0.128,0.138 -0.278,0.248 -0.452,0.33 -0.174,0.082 -0.362,0.122 -0.565,0.122 M 55.072,13.59 c 0,0.139 0.022,0.273 0.067,0.404 0.044,0.13 0.107,0.246 0.189,0.346 0.082,0.1 0.181,0.18 0.298,0.239 0.116,0.06 0.247,0.09 0.392,0.09 0.15,0 0.282,-0.032 0.397,-0.094 0.116,-0.063 0.214,-0.145 0.294,-0.248 0.081,-0.102 0.142,-0.218 0.183,-0.345 0.042,-0.128 0.063,-0.259 0.063,-0.392 0,-0.142 -0.022,-0.277 -0.067,-0.407 -0.044,-0.128 -0.107,-0.243 -0.189,-0.341 -0.082,-0.099 -0.181,-0.178 -0.296,-0.238 -0.115,-0.059 -0.244,-0.089 -0.385,-0.089 -0.151,0 -0.284,0.031 -0.4,0.093 -0.117,0.063 -0.216,0.144 -0.296,0.244 -0.081,0.1 -0.143,0.215 -0.186,0.344 -0.043,0.129 -0.064,0.26 -0.064,0.394 m 3.312,-0.604 c 0,0 0,2.083 0,2.083 0,0 -0.467,0 -0.467,0 0,0 0,-2.958 0,-2.958 0,0 0.367,0 0.367,0 0,0 1.691,2.133 1.691,2.133 0,0 0,-2.129 0,-2.129 0,0 0.472,0 0.472,0 0,0 0,2.954 0,2.954 0,0 -0.388,0 -0.388,0 0,0 -1.675,-2.083 -1.675,-2.083 0,0 0,0 0,0" />
    <path
       inkscape:connector-curvature="0"
       id="path16"
       stroke="none"
       fill-rule="nonzero"
       fill="#323539"
       d="m 14.665,19.329 c 0,0 0,-2.927 0,-2.927 0,0 1.228,0 1.228,0 0.132,0 0.253,0.028 0.365,0.083 0.111,0.055 0.207,0.127 0.286,0.216 0.08,0.09 0.143,0.191 0.188,0.306 0.045,0.114 0.068,0.23 0.068,0.348 0,0.124 -0.021,0.242 -0.064,0.357 -0.043,0.113 -0.103,0.215 -0.179,0.305 -0.077,0.088 -0.17,0.16 -0.279,0.214 -0.108,0.053 -0.229,0.08 -0.36,0.08 0,0 -0.792,0 -0.792,0 0,0 0,1.018 0,1.018 0,0 -0.461,0 -0.461,0 m 0.461,-1.426 c 0,0 0.763,0 0.763,0 0.066,0 0.125,-0.014 0.179,-0.041 0.054,-0.028 0.1,-0.066 0.138,-0.116 0.038,-0.049 0.069,-0.106 0.091,-0.173 0.022,-0.066 0.033,-0.139 0.033,-0.218 0,-0.083 -0.013,-0.157 -0.037,-0.223 -0.025,-0.066 -0.059,-0.123 -0.103,-0.171 -0.044,-0.048 -0.094,-0.085 -0.15,-0.111 -0.057,-0.026 -0.116,-0.039 -0.176,-0.039 0,0 -0.738,0 -0.738,0 0,0 0,1.092 0,1.092 m 2.144,1.426 c 0,0 0,-2.927 0,-2.927 0,0 1.273,0 1.273,0 0.132,0 0.254,0.028 0.365,0.083 0.112,0.055 0.207,0.127 0.287,0.216 0.079,0.09 0.142,0.191 0.187,0.306 0.046,0.114 0.068,0.23 0.068,0.348 0,0.098 -0.014,0.194 -0.041,0.285 -0.028,0.09 -0.066,0.174 -0.116,0.251 -0.049,0.077 -0.11,0.143 -0.181,0.199 -0.071,0.057 -0.15,0.099 -0.235,0.126 0,0 0.689,1.113 0.689,1.113 0,0 -0.524,0 -0.524,0 0,0 -0.635,-1.018 -0.635,-1.018 0,0 -0.676,0 -0.676,0 0,0 0,1.018 0,1.018 0,0 -0.461,0 -0.461,0 m 0.461,-1.426 c 0,0 0.808,0 0.808,0 0.066,0 0.126,-0.014 0.18,-0.043 0.053,-0.029 0.099,-0.069 0.138,-0.12 0.038,-0.051 0.068,-0.109 0.09,-0.175 0.022,-0.066 0.033,-0.136 0.033,-0.21 0,-0.075 -0.013,-0.144 -0.039,-0.21 -0.026,-0.067 -0.06,-0.124 -0.103,-0.173 -0.042,-0.05 -0.092,-0.089 -0.148,-0.118 -0.057,-0.029 -0.115,-0.043 -0.175,-0.043 0,0 -0.784,0 -0.784,0 0,0 0,1.092 0,1.092 m 3.516,1.447 c -0.209,0 -0.399,-0.042 -0.571,-0.126 -0.171,-0.084 -0.319,-0.195 -0.442,-0.334 -0.124,-0.139 -0.22,-0.297 -0.287,-0.476 -0.067,-0.179 -0.101,-0.361 -0.101,-0.548 0,-0.195 0.036,-0.382 0.107,-0.561 0.071,-0.178 0.17,-0.337 0.294,-0.474 0.126,-0.137 0.274,-0.246 0.446,-0.327 0.172,-0.082 0.359,-0.122 0.563,-0.122 0.208,0 0.399,0.043 0.571,0.13 0.171,0.087 0.318,0.2 0.44,0.34 0.123,0.14 0.218,0.299 0.285,0.476 0.067,0.177 0.101,0.358 0.101,0.542 0,0.195 -0.035,0.382 -0.105,0.561 -0.07,0.178 -0.168,0.336 -0.295,0.472 -0.126,0.135 -0.275,0.244 -0.447,0.325 -0.172,0.081 -0.358,0.122 -0.559,0.122 m -0.931,-1.484 c 0,0.137 0.022,0.271 0.065,0.4 0.045,0.129 0.107,0.243 0.188,0.342 0.081,0.099 0.179,0.178 0.295,0.237 0.116,0.059 0.244,0.088 0.388,0.088 0.148,0 0.279,-0.03 0.393,-0.092 0.114,-0.062 0.211,-0.144 0.291,-0.245 0.079,-0.102 0.14,-0.216 0.181,-0.342 0.041,-0.127 0.062,-0.256 0.062,-0.388 0,-0.14 -0.022,-0.274 -0.066,-0.402 -0.044,-0.128 -0.107,-0.241 -0.188,-0.338 -0.081,-0.097 -0.178,-0.176 -0.292,-0.235 -0.114,-0.059 -0.241,-0.089 -0.381,-0.089 -0.149,0 -0.281,0.032 -0.396,0.093 -0.116,0.062 -0.213,0.142 -0.293,0.241 -0.08,0.099 -0.141,0.213 -0.183,0.34 -0.043,0.128 -0.064,0.258 -0.064,0.39 m 2.667,-0.02 c 0,-0.177 0.031,-0.352 0.095,-0.526 0.063,-0.175 0.155,-0.331 0.278,-0.47 0.122,-0.139 0.271,-0.251 0.447,-0.336 0.176,-0.085 0.375,-0.128 0.598,-0.128 0.266,0 0.494,0.059 0.684,0.177 0.189,0.118 0.332,0.272 0.429,0.462 0,0 -0.363,0.243 -0.363,0.243 C 25.11,17.18 25.06,17.106 25.003,17.046 24.945,16.985 24.881,16.937 24.812,16.901 24.744,16.866 24.673,16.84 24.598,16.825 24.524,16.81 24.453,16.802 24.384,16.802 c -0.154,0 -0.289,0.032 -0.404,0.093 -0.115,0.062 -0.212,0.144 -0.291,0.245 -0.078,0.102 -0.137,0.216 -0.177,0.343 -0.039,0.126 -0.059,0.253 -0.059,0.379 0,0.143 0.023,0.279 0.07,0.408 0.046,0.129 0.111,0.243 0.195,0.342 0.084,0.099 0.184,0.178 0.299,0.237 0.116,0.059 0.242,0.089 0.379,0.089 0.072,0 0.145,-0.009 0.221,-0.027 0.075,-0.018 0.148,-0.047 0.218,-0.087 0.07,-0.039 0.135,-0.09 0.194,-0.15 0.059,-0.06 0.108,-0.133 0.146,-0.219 0,0 0.384,0.219 0.384,0.219 -0.047,0.11 -0.113,0.207 -0.198,0.291 -0.085,0.083 -0.181,0.154 -0.288,0.212 -0.108,0.058 -0.221,0.101 -0.341,0.132 -0.119,0.03 -0.237,0.045 -0.352,0.045 -0.206,0 -0.394,-0.044 -0.565,-0.132 -0.17,-0.088 -0.317,-0.203 -0.441,-0.344 -0.123,-0.142 -0.22,-0.302 -0.288,-0.483 -0.069,-0.179 -0.103,-0.363 -0.103,-0.549 m 5.049,1.075 c 0,0 0,0.408 0,0.408 0,0 -2.008,0 -2.008,0 0,0 0,-2.927 0,-2.927 0,0 1.971,0 1.971,0 0,0 0,0.409 0,0.409 0,0 -1.509,0 -1.509,0 0,0 0,0.832 0,0.832 0,0 1.307,0 1.307,0 0,0 0,0.384 0,0.384 0,0 -1.307,0 -1.307,0 0,0 0,0.894 0,0.894 0,0 1.546,0 1.546,0 0,0 0,0 0,0 m 2.185,-1.83 c -0.028,-0.03 -0.068,-0.062 -0.12,-0.097 -0.052,-0.034 -0.113,-0.067 -0.184,-0.097 -0.07,-0.03 -0.146,-0.055 -0.23,-0.074 -0.084,-0.019 -0.17,-0.029 -0.258,-0.029 -0.195,0 -0.339,0.036 -0.431,0.107 -0.092,0.072 -0.138,0.171 -0.138,0.297 0,0.072 0.014,0.13 0.044,0.175 0.029,0.046 0.073,0.086 0.134,0.12 0.06,0.034 0.136,0.065 0.226,0.091 0.091,0.026 0.197,0.054 0.318,0.084 0.148,0.036 0.282,0.076 0.402,0.12 0.119,0.044 0.22,0.097 0.302,0.16 0.083,0.064 0.147,0.141 0.192,0.233 0.046,0.092 0.068,0.204 0.068,0.336 0,0.148 -0.028,0.276 -0.084,0.384 -0.057,0.107 -0.134,0.194 -0.231,0.261 -0.098,0.067 -0.211,0.117 -0.34,0.149 -0.129,0.031 -0.268,0.047 -0.417,0.047 -0.222,0 -0.437,-0.033 -0.645,-0.101 -0.207,-0.068 -0.395,-0.165 -0.562,-0.295 0,0 0.21,-0.395 0.21,-0.395 0.036,0.035 0.087,0.075 0.155,0.119 0.067,0.044 0.145,0.085 0.234,0.122 0.09,0.037 0.187,0.069 0.291,0.095 0.104,0.026 0.213,0.039 0.326,0.039 0.181,0 0.321,-0.032 0.42,-0.095 0.099,-0.063 0.148,-0.156 0.148,-0.28 0,-0.075 -0.018,-0.136 -0.055,-0.186 -0.037,-0.049 -0.09,-0.093 -0.159,-0.13 -0.069,-0.037 -0.152,-0.071 -0.251,-0.101 -0.099,-0.03 -0.212,-0.062 -0.338,-0.095 -0.146,-0.038 -0.273,-0.078 -0.382,-0.121 -0.108,-0.043 -0.198,-0.094 -0.269,-0.155 -0.072,-0.06 -0.126,-0.131 -0.163,-0.212 -0.037,-0.081 -0.056,-0.179 -0.056,-0.295 0,-0.143 0.027,-0.27 0.082,-0.381 0.055,-0.111 0.13,-0.205 0.225,-0.28 0.095,-0.076 0.207,-0.133 0.336,-0.171 0.129,-0.039 0.269,-0.058 0.421,-0.058 0.198,0 0.38,0.032 0.548,0.095 0.167,0.063 0.314,0.141 0.441,0.235 0,0 -0.21,0.379 -0.21,0.379 m 2.555,0 c -0.027,-0.03 -0.067,-0.062 -0.119,-0.097 -0.052,-0.034 -0.114,-0.067 -0.184,-0.097 -0.07,-0.03 -0.147,-0.055 -0.231,-0.074 -0.083,-0.019 -0.17,-0.029 -0.257,-0.029 -0.196,0 -0.339,0.036 -0.431,0.107 -0.092,0.072 -0.138,0.171 -0.138,0.297 0,0.072 0.014,0.13 0.043,0.175 0.029,0.046 0.074,0.086 0.134,0.12 0.06,0.034 0.136,0.065 0.227,0.091 0.091,0.026 0.196,0.054 0.317,0.084 0.149,0.036 0.283,0.076 0.402,0.12 0.12,0.044 0.221,0.097 0.303,0.16 0.083,0.064 0.146,0.141 0.192,0.233 0.045,0.092 0.068,0.204 0.068,0.336 0,0.148 -0.028,0.276 -0.085,0.384 -0.056,0.107 -0.133,0.194 -0.231,0.261 -0.097,0.067 -0.211,0.117 -0.34,0.149 -0.129,0.031 -0.268,0.047 -0.416,0.047 -0.223,0 -0.437,-0.033 -0.645,-0.101 -0.207,-0.068 -0.395,-0.165 -0.563,-0.295 0,0 0.211,-0.395 0.211,-0.395 0.035,0.035 0.087,0.075 0.154,0.119 0.067,0.044 0.146,0.085 0.235,0.122 0.09,0.037 0.186,0.069 0.291,0.095 0.104,0.026 0.213,0.039 0.325,0.039 0.181,0 0.322,-0.032 0.421,-0.095 0.098,-0.063 0.148,-0.156 0.148,-0.28 0,-0.075 -0.018,-0.136 -0.056,-0.186 -0.037,-0.049 -0.09,-0.093 -0.158,-0.13 C 32.32,18.214 32.236,18.18 32.137,18.15 32.039,18.12 31.926,18.088 31.799,18.055 31.654,18.017 31.526,17.977 31.418,17.934 31.309,17.891 31.22,17.84 31.148,17.779 31.076,17.719 31.022,17.648 30.985,17.567 30.948,17.486 30.93,17.388 30.93,17.272 c 0,-0.143 0.027,-0.27 0.082,-0.381 0.055,-0.111 0.13,-0.205 0.225,-0.28 0.094,-0.076 0.207,-0.133 0.336,-0.171 0.129,-0.039 0.269,-0.058 0.42,-0.058 0.198,0 0.381,0.032 0.548,0.095 0.168,0.063 0.315,0.141 0.441,0.235 0,0 -0.21,0.379 -0.21,0.379 m 0.824,2.238 c 0,0 0,-2.927 0,-2.927 0,0 0.462,0 0.462,0 0,0 0,2.927 0,2.927 0,0 -0.462,0 -0.462,0 0,0 0,0 0,0 m 1.62,-2.061 c 0,0 0,2.061 0,2.061 0,0 -0.461,0 -0.461,0 0,0 0,-2.927 0,-2.927 0,0 0.362,0 0.362,0 0,0 1.674,2.111 1.674,2.111 0,0 0,-2.106 0,-2.106 0,0 0.466,0 0.466,0 0,0 0,2.922 0,2.922 0,0 -0.384,0 -0.384,0 0,0 -1.657,-2.061 -1.657,-2.061 0,0 0,0 0,0 m 4.786,1.698 c -0.247,0.256 -0.532,0.384 -0.853,0.384 -0.196,0 -0.377,-0.041 -0.544,-0.122 -0.168,-0.081 -0.314,-0.19 -0.438,-0.327 -0.123,-0.138 -0.22,-0.297 -0.29,-0.479 -0.07,-0.181 -0.105,-0.37 -0.105,-0.568 0,-0.198 0.035,-0.386 0.105,-0.565 0.07,-0.179 0.167,-0.335 0.29,-0.47 0.124,-0.135 0.271,-0.241 0.442,-0.319 0.17,-0.079 0.356,-0.118 0.556,-0.118 0.281,0 0.515,0.058 0.705,0.175 0.189,0.117 0.332,0.272 0.429,0.464 0,0 -0.355,0.255 -0.355,0.255 -0.08,-0.159 -0.189,-0.279 -0.329,-0.358 -0.141,-0.08 -0.295,-0.119 -0.462,-0.119 -0.138,0 -0.262,0.029 -0.375,0.088 -0.113,0.059 -0.209,0.137 -0.289,0.235 -0.079,0.097 -0.14,0.211 -0.183,0.34 -0.043,0.129 -0.064,0.264 -0.064,0.404 0,0.148 0.024,0.287 0.072,0.416 0.048,0.129 0.114,0.242 0.198,0.338 0.084,0.096 0.183,0.173 0.299,0.229 0.115,0.056 0.24,0.084 0.375,0.084 0.148,0 0.291,-0.034 0.426,-0.102 0.136,-0.069 0.266,-0.178 0.39,-0.326 0,0 0,-0.313 0,-0.313 0,0 -0.614,0 -0.614,0 0,0 0,-0.343 0,-0.343 0,0 1.002,0 1.002,0 0,0 0,1.48 0,1.48 0,0 -0.388,0 -0.388,0 0,0 0,-0.363 0,-0.363 m 3.701,-1.875 C 43.676,17.061 43.636,17.029 43.584,16.994 43.532,16.96 43.471,16.927 43.4,16.897 43.33,16.867 43.253,16.842 43.17,16.823 43.086,16.804 43,16.794 42.912,16.794 c -0.195,0 -0.339,0.036 -0.431,0.107 -0.092,0.072 -0.138,0.171 -0.138,0.297 0,0.072 0.015,0.13 0.043,0.175 0.029,0.046 0.074,0.086 0.134,0.12 0.061,0.034 0.136,0.065 0.227,0.091 0.091,0.026 0.197,0.054 0.318,0.084 0.148,0.036 0.282,0.076 0.402,0.12 0.119,0.044 0.22,0.097 0.302,0.16 0.083,0.064 0.147,0.141 0.192,0.233 0.046,0.092 0.068,0.204 0.068,0.336 0,0.148 -0.028,0.276 -0.085,0.384 -0.056,0.107 -0.133,0.194 -0.23,0.261 -0.098,0.067 -0.211,0.117 -0.34,0.149 -0.129,0.031 -0.268,0.047 -0.417,0.047 -0.222,0 -0.437,-0.033 -0.645,-0.101 -0.207,-0.068 -0.395,-0.165 -0.562,-0.295 0,0 0.21,-0.395 0.21,-0.395 0.036,0.035 0.087,0.075 0.154,0.119 0.068,0.044 0.146,0.085 0.235,0.122 0.09,0.037 0.187,0.069 0.291,0.095 0.104,0.026 0.213,0.039 0.326,0.039 0.181,0 0.321,-0.032 0.42,-0.095 0.099,-0.063 0.148,-0.156 0.148,-0.28 0,-0.075 -0.018,-0.136 -0.055,-0.186 -0.037,-0.049 -0.09,-0.093 -0.159,-0.13 C 43.251,18.214 43.168,18.18 43.069,18.15 42.97,18.12 42.857,18.088 42.73,18.055 42.585,18.017 42.458,17.977 42.349,17.934 42.241,17.891 42.151,17.84 42.08,17.779 c -0.072,-0.06 -0.126,-0.131 -0.163,-0.212 -0.037,-0.081 -0.056,-0.179 -0.056,-0.295 0,-0.143 0.027,-0.27 0.082,-0.381 0.055,-0.111 0.13,-0.205 0.225,-0.28 0.095,-0.076 0.207,-0.133 0.336,-0.171 0.129,-0.039 0.269,-0.058 0.42,-0.058 0.198,0 0.381,0.032 0.549,0.095 0.167,0.063 0.314,0.141 0.44,0.235 0,0 -0.21,0.379 -0.21,0.379 m 0.977,-0.689 c 0,0 0.808,1.468 0.808,1.468 0,0 0.816,-1.468 0.816,-1.468 0,0 0.507,0 0.507,0 0,0 -1.092,1.88 -1.092,1.88 0,0 0,1.047 0,1.047 0,0 -0.462,0 -0.462,0 0,0 0,-1.055 0,-1.055 0,0 -1.084,-1.872 -1.084,-1.872 0,0 0.507,0 0.507,0 0,0 0,0 0,0 m 4.184,0.689 c -0.027,-0.03 -0.067,-0.062 -0.119,-0.097 -0.053,-0.034 -0.114,-0.067 -0.184,-0.097 -0.07,-0.03 -0.147,-0.055 -0.231,-0.074 -0.084,-0.019 -0.169,-0.029 -0.257,-0.029 -0.196,0 -0.339,0.036 -0.431,0.107 -0.092,0.072 -0.138,0.171 -0.138,0.297 0,0.072 0.014,0.13 0.043,0.175 0.029,0.046 0.074,0.086 0.134,0.12 0.06,0.034 0.136,0.065 0.227,0.091 0.09,0.026 0.196,0.054 0.317,0.084 0.149,0.036 0.283,0.076 0.402,0.12 0.12,0.044 0.22,0.097 0.303,0.16 0.082,0.064 0.147,0.141 0.192,0.233 0.045,0.092 0.068,0.204 0.068,0.336 0,0.148 -0.029,0.276 -0.085,0.384 -0.056,0.107 -0.133,0.194 -0.231,0.261 -0.097,0.067 -0.211,0.117 -0.34,0.149 -0.129,0.031 -0.268,0.047 -0.416,0.047 -0.223,0 -0.438,-0.033 -0.645,-0.101 -0.207,-0.068 -0.395,-0.165 -0.563,-0.295 0,0 0.21,-0.395 0.21,-0.395 0.036,0.035 0.088,0.075 0.155,0.119 0.067,0.044 0.146,0.085 0.235,0.122 0.089,0.037 0.186,0.069 0.291,0.095 0.104,0.026 0.213,0.039 0.325,0.039 0.181,0 0.322,-0.032 0.421,-0.095 0.099,-0.063 0.148,-0.156 0.148,-0.28 0,-0.075 -0.019,-0.136 -0.056,-0.186 C 48.602,18.332 48.55,18.288 48.481,18.251 48.412,18.214 48.328,18.18 48.229,18.15 48.13,18.12 48.018,18.088 47.891,18.055 47.745,18.017 47.619,17.977 47.51,17.934 47.401,17.891 47.311,17.84 47.24,17.779 c -0.071,-0.06 -0.126,-0.131 -0.163,-0.212 -0.037,-0.081 -0.055,-0.179 -0.055,-0.295 0,-0.143 0.027,-0.27 0.082,-0.381 0.055,-0.111 0.13,-0.205 0.224,-0.28 0.095,-0.076 0.207,-0.133 0.336,-0.171 0.13,-0.039 0.27,-0.058 0.421,-0.058 0.198,0 0.381,0.032 0.548,0.095 0.168,0.063 0.315,0.141 0.441,0.235 0,0 -0.21,0.379 -0.21,0.379 m 2.951,-0.28 c 0,0 -0.972,0 -0.972,0 0,0 0,2.518 0,2.518 0,0 -0.466,0 -0.466,0 0,0 0,-2.518 0,-2.518 0,0 -0.977,0 -0.977,0 0,0 0,-0.409 0,-0.409 0,0 2.415,0 2.415,0 0,0 0,0.409 0,0.409 0,0 0,0 0,0 m 2.436,2.11 c 0,0 0,0.408 0,0.408 0,0 -2.007,0 -2.007,0 0,0 0,-2.927 0,-2.927 0,0 1.97,0 1.97,0 0,0 0,0.409 0,0.409 0,0 -1.508,0 -1.508,0 0,0 0,0.832 0,0.832 0,0 1.307,0 1.307,0 0,0 0,0.384 0,0.384 0,0 -1.307,0 -1.307,0 0,0 0,0.894 0,0.894 0,0 1.545,0 1.545,0 0,0 0,0 0,0 m 2.976,0.408 c 0,0 0,-2.106 0,-2.106 0,0 -0.869,1.595 -0.869,1.595 0,0 -0.256,0 -0.256,0 0,0 -0.874,-1.595 -0.874,-1.595 0,0 0,2.106 0,2.106 0,0 -0.461,0 -0.461,0 0,0 0,-2.927 0,-2.927 0,0 0.494,0 0.494,0 0,0 0.969,1.79 0.969,1.79 0,0 0.969,-1.79 0.969,-1.79 0,0 0.494,0 0.494,0 0,0 0,2.927 0,2.927 0,0 -0.466,0 -0.466,0 0,0 0,0 0,0 m 2.894,-2.238 c -0.028,-0.03 -0.068,-0.062 -0.12,-0.097 -0.052,-0.034 -0.113,-0.067 -0.183,-0.097 -0.07,-0.03 -0.147,-0.055 -0.231,-0.074 -0.084,-0.019 -0.17,-0.029 -0.257,-0.029 -0.196,0 -0.339,0.036 -0.431,0.107 -0.092,0.072 -0.138,0.171 -0.138,0.297 0,0.072 0.014,0.13 0.043,0.175 0.029,0.046 0.073,0.086 0.134,0.12 0.06,0.034 0.136,0.065 0.227,0.091 0.09,0.026 0.196,0.054 0.317,0.084 0.148,0.036 0.282,0.076 0.402,0.12 0.119,0.044 0.22,0.097 0.303,0.16 0.082,0.064 0.146,0.141 0.192,0.233 0.045,0.092 0.068,0.204 0.068,0.336 0,0.148 -0.029,0.276 -0.085,0.384 -0.056,0.107 -0.133,0.194 -0.231,0.261 -0.098,0.067 -0.211,0.117 -0.34,0.149 -0.129,0.031 -0.268,0.047 -0.416,0.047 -0.223,0 -0.438,-0.033 -0.645,-0.101 -0.208,-0.068 -0.395,-0.165 -0.563,-0.295 0,0 0.21,-0.395 0.21,-0.395 0.036,0.035 0.088,0.075 0.155,0.119 0.067,0.044 0.146,0.085 0.235,0.122 0.089,0.037 0.186,0.069 0.29,0.095 0.105,0.026 0.213,0.039 0.326,0.039 0.181,0 0.322,-0.032 0.42,-0.095 0.099,-0.063 0.149,-0.156 0.149,-0.28 0,-0.075 -0.019,-0.136 -0.056,-0.186 -0.037,-0.049 -0.09,-0.093 -0.159,-0.13 -0.068,-0.037 -0.152,-0.071 -0.251,-0.101 -0.099,-0.03 -0.211,-0.062 -0.338,-0.095 -0.146,-0.038 -0.273,-0.078 -0.381,-0.121 -0.109,-0.043 -0.199,-0.094 -0.27,-0.155 -0.072,-0.06 -0.126,-0.131 -0.163,-0.212 -0.037,-0.081 -0.056,-0.179 -0.056,-0.295 0,-0.143 0.028,-0.27 0.083,-0.381 0.055,-0.111 0.13,-0.205 0.224,-0.28 0.095,-0.076 0.207,-0.133 0.336,-0.171 0.13,-0.039 0.27,-0.058 0.421,-0.058 0.198,0 0.38,0.032 0.548,0.095 0.168,0.063 0.315,0.141 0.441,0.235 0,0 -0.21,0.379 -0.21,0.379" />
  </g>
</svg>
