<svg width="170.9" height="170.9" xmlns="http://www.w3.org/2000/svg">
 <style type="text/css">.st0{fill:#FF4500;}
	.st1{fill:#FFFFFF;}
	.st2{display:none;}
	.st3{display:inline;fill:none;stroke:#D8D8D8;stroke-width:0.5;stroke-miterlimit:10;}</style>

 <g>
  <title>Layer 1</title>
  <g id="Artwork">
   <g id="svg_1">
    <circle class="st0" cx="85.49999" cy="85.49999" r="85.5" id="svg_2"/>
    <path class="st1" d="m142.49999,85.49999c0,-6.9 -5.6,-12.5 -12.5,-12.5c-3.4,0 -6.4,1.3 -8.6,3.5c-8.5,-6.1 -20.3,-10.1 -33.3,-10.6l5.7,-26.7l18.5,3.9c0.2,4.7 4.1,8.5 8.9,8.5c4.9,0 8.9,-4 8.9,-8.9c0,-4.9 -4,-8.9 -8.9,-8.9c-3.5,0 -6.5,2 -7.9,5l-20.7,-4.4c-0.6,-0.1 -1.2,0 -1.7,0.3c-0.5,0.3 -0.8,0.8 -1,1.4l-6.3,29.8c-13.3,0.4 -25.2,4.3 -33.8,10.6c-2.2,-2.1 -5.3,-3.5 -8.6,-3.5c-6.9,0 -12.5,5.6 -12.5,12.5c0,5.1 3,9.4 7.4,11.4c-0.2,1.2 -0.3,2.5 -0.3,3.8c0,19.2 22.3,34.7 49.9,34.7s49.9,-15.5 49.9,-34.7c0,-1.3 -0.1,-2.5 -0.3,-3.7c4.1,-2 7.2,-6.4 7.2,-11.5zm-85.5,8.9c0,-4.9 4,-8.9 8.9,-8.9c4.9,0 8.9,4 8.9,8.9c0,4.9 -4,8.9 -8.9,8.9c-4.9,0 -8.9,-4 -8.9,-8.9zm49.7,23.5c-6.1,6.1 -17.7,6.5 -21.1,6.5c-3.4,0 -15.1,-0.5 -21.1,-6.5c-0.9,-0.9 -0.9,-2.4 0,-3.3c0.9,-0.9 2.4,-0.9 3.3,0c3.8,3.8 12,5.2 17.9,5.2s14,-1.4 17.9,-5.2c0.9,-0.9 2.4,-0.9 3.3,0c0.7,1 0.7,2.4 -0.2,3.3zm-1.6,-14.6c-4.9,0 -8.9,-4 -8.9,-8.9c0,-4.9 4,-8.9 8.9,-8.9c4.9,0 8.9,4 8.9,8.9c0,4.9 -4,8.9 -8.9,8.9z" id="svg_3"/>
   </g>
  </g>
  <g id="Spacing_Guide" class="st2">
   <rect class="st3" width="85.4" height="85.4" id="svg_4"/>
   <rect class="st3" width="341.8" height="85.4" id="svg_5"/>
   <rect y="256.3" class="st3" width="341.8" height="85.4" id="svg_6"/>
   <rect class="st3" width="85.4" height="341.8" id="svg_7"/>
   <rect x="256.4" class="st3" width="85.4" height="341.8" id="svg_8"/>
  </g>
 </g>
</svg>